<?xml version="1.0" encoding="UTF-8" standalone="no"?>
<svg width="129px" height="129px" viewBox="0 0 129 129" version="1.1" xmlns="http://www.w3.org/2000/svg" xmlns:xlink="http://www.w3.org/1999/xlink" xmlns:sketch="http://www.bohemiancoding.com/sketch/ns">
    <!-- Generator: Sketch 3.0.1 (7597) - http://www.bohemiancoding.com/sketch -->
    <title>Mandala_52 2</title>
    <description>Created with Sketch.</description>
    <defs></defs>
    <g id="Page-1" stroke="none" stroke-width="1" fill="none" fill-rule="evenodd" sketch:type="MSPage">
        <g id="Mandala_52-2" sketch:type="MSLayerGroup" fill="#000000">
            <path d="M59.8268592,128.926812 C59.2931849,128.864605 57.6713693,128.680208 56.2228245,128.517045 C40.4442941,126.739761 24.2908554,117.643173 14.03919,104.76191 C-1.39693299,85.3663573 -4.37326896,58.5574943 6.4493566,36.3977262 C9.78829071,29.561123 13.5176696,24.3420296 18.9284398,18.933828 C26.2300312,11.6357023 34.4727912,6.53542177 44.16317,3.31961175 C60.3398021,-2.04869925 77.7348946,-0.874736476 92.9828861,6.61436447 C112.169417,16.0378924 125.187442,33.9191087 128.485051,55.3792002 C129.174043,59.8629902 129.171115,69.5436749 128.479437,73.9450215 C124.008222,102.396708 102.076304,124.256216 73.8271479,128.416878 C71.1321672,128.813807 61.7797387,129.154451 59.8268592,128.926812 L59.8268592,128.926812 Z M70.7199621,127.692712 C82.9505621,126.480393 94.59917,121.702816 104.296757,113.921476 C109.327164,109.88508 114.353023,104.313672 118.032013,98.6952745 C119.84919,95.9201586 122.977762,89.6373504 124.135204,86.4388323 C130.090192,69.9825695 129.127426,51.7310949 121.496485,36.4157648 C117.994239,29.386742 114.242397,24.25291 108.562485,18.7175267 C99.2093829,9.60242445 88.1385021,4.04941863 74.4474643,1.60588912 C71.4703856,1.0745503 70.0281074,0.988490786 64.3123763,1.00113663 C58.6988636,1.01355618 57.1230375,1.11174622 54.3162811,1.62399633 C40.5951967,4.12817596 29.8443492,9.54274 20.336359,18.7376668 C10.1207066,28.616955 3.72363276,41.0325794 1.51896788,55.2590001 C0.832680143,59.6875292 0.825768676,69.4499843 1.50590465,73.7106353 C3.67414737,87.2933942 9.53209485,99.0680555 18.8923883,108.658023 C24.1878977,114.083468 29.2893605,117.849725 35.8326294,121.164489 C46.5738973,126.605924 58.7319867,128.880981 70.7199621,127.692712 L70.7199621,127.692712 Z M58.3934935,124.714819 C52.5747005,124.152991 45.9469842,122.403746 40.2845238,119.93534 C21.0244396,111.539395 7.59176241,93.9268824 4.49409775,73.0080422 C3.83432764,68.552548 3.83549815,59.8364574 4.49643186,55.6303523 C7.62248847,35.7364981 19.7839648,19.0152076 37.5135771,10.23379 C43.3604741,7.33784103 49.0734643,5.53470436 55.6723962,4.50249471 C59.9564653,3.83237781 68.9257074,3.83252774 73.2540609,4.50278876 C101.045287,8.8063599 121.971415,30.9080295 124.7207,58.860599 C126.175545,73.6523527 121.90473,88.7729959 112.892266,100.738674 C100.10119,117.721144 79.5590554,126.758434 58.3934935,124.714819 L58.3934935,124.714819 Z M74.2831686,123.294676 C104.098102,118.077541 125.026195,92.3323274 123.961128,62.1821023 C122.991928,34.7457031 103.038352,11.4431094 75.9464655,6.10863524 C61.6715159,3.29785433 46.558417,5.88538401 34.1679967,13.2615711 C29.9418307,15.7774661 26.7902683,18.21317 23.0396861,21.8621511 C14.7541494,29.9232367 9.42832788,39.1028884 6.651491,50.1090422 C5.38917307,55.1123129 4.99174905,58.684614 5.00012929,64.9525393 C5.00892148,71.5288031 5.53347046,75.3913214 7.20112777,81.1595956 C13.5105174,102.9832 32.1257591,119.54569 54.4973861,123.24037 C59.3440034,124.04079 59.5443725,124.053847 65.5508595,123.96065 C69.4861979,123.899592 71.861422,123.718444 74.2831686,123.294676 L74.2831686,123.294676 Z M61.4554126,121.628656 C56.9783681,120.664327 52.7881537,117.578505 50.7259932,113.727135 L50.0331368,112.433127 L49.7110967,113.700399 C48.6725776,117.787152 42.8592717,118.573861 40.7051832,114.91916 C39.9309081,113.605498 39.9319696,111.19255 40.7073979,109.890276 L41.2981419,108.898162 L40.00912,109.315643 C37.9058084,109.996852 33.0389295,109.923874 30.635886,109.175095 C23.5782829,106.975965 18.7234682,99.9724865 19.227837,92.7180204 C19.312069,91.5064926 19.5580907,89.940469 19.7745519,89.2379673 L20.1681182,87.9606921 L19.168664,88.5450092 C17.8251435,89.3304812 15.4623224,89.3414125 14.1264579,88.5683366 C11.4144331,86.9988629 10.9081172,83.0496099 13.1359139,80.8421154 C13.6328463,80.3497119 14.4031786,79.8672292 14.8477633,79.7699325 C15.2923483,79.6726358 15.8262973,79.5400341 16.0343168,79.4752614 C16.2458459,79.4093929 15.4947062,78.7637835 14.3299726,78.0103674 C4.18203108,71.4460894 4.65949003,56.4965466 15.2124499,50.3794435 L16.4360775,49.6701601 L15.3181963,49.3718874 C13.9812252,49.0151586 12.8645479,48.1944063 12.3531317,47.1925774 C11.0487081,44.6373056 11.8923428,41.5493277 14.2217677,40.352765 C15.5607312,39.6649751 17.9418779,39.7269778 19.1740329,40.4817128 L20.1910504,41.1046722 L19.7582631,39.7896441 C19.4834864,38.9547335 19.3150806,37.368794 19.2970043,35.4457965 C19.2733384,32.9281839 19.3829532,32.0707636 19.9464542,30.3657144 C22.2662282,23.3465105 29.1866943,18.6609504 36.4970621,19.1599847 C37.719732,19.2434491 39.3001577,19.4872289 40.00912,19.7017175 L41.2981419,20.0916973 L40.7287724,19.1354794 C39.9424567,17.8149204 39.9209239,15.4012962 40.6839087,14.106792 C42.2663269,11.42201 46.0889902,10.9222586 48.4150945,13.0960647 C48.9460555,13.592263 49.4619916,14.3633179 49.561617,14.8095197 C49.6612451,15.2557215 49.7948968,15.7859693 49.8586229,15.9878478 C49.922349,16.1897266 50.6131797,15.4086767 51.3938043,14.2521817 C56.873024,6.13472504 67.9685747,4.58128425 75.5884197,10.8647967 C76.5452561,11.6538284 77.8363982,13.1181779 78.608189,14.2896688 L79.9564437,16.3361676 L80.2496455,15.2572227 C80.8609498,13.007705 82.4809873,11.8297635 85.0123056,11.7942561 C87.8892227,11.7539006 89.7788811,13.6379682 89.8210604,16.5887854 C89.8365467,17.6721157 89.673423,18.3918742 89.2520243,19.0995835 L88.6612803,20.0916973 L89.9503022,19.7017175 C90.6592645,19.4872289 92.2396903,19.2434491 93.4623601,19.1599847 C100.783543,18.6602122 107.85143,23.4707857 110.070784,30.464074 C110.82645,32.845219 110.900099,37.6677468 110.212625,39.7518912 L109.791304,41.0291665 L110.756316,40.4649855 C112.254453,39.5891197 114.597958,39.6535097 116.057593,40.6106469 C119.554348,42.9036038 118.669493,48.3594935 114.637706,49.3654553 L113.35878,49.6845607 L114.664688,50.3711032 C117.951325,52.0989594 121.111507,55.9101506 122.23815,59.5047288 C124.055921,65.3043593 122.56398,71.5764057 118.369686,75.7675788 C117.355857,76.7806556 115.848066,77.9924285 115.01904,78.4604086 L113.511722,79.3112839 L114.524776,79.5884512 C116.61022,80.159023 117.780118,81.4338035 118.168318,83.5586443 C118.914389,87.6423467 114.375382,90.6048901 110.657916,88.4605712 L109.791304,87.9606921 L110.184871,89.2379673 C110.40133,89.940469 110.647354,91.5064926 110.731585,92.7180204 C111.400002,102.332006 103.164762,110.492199 93.4623601,109.829873 C92.2396903,109.74641 90.6592645,109.502629 89.9503022,109.288141 L88.6612803,108.898162 L89.2306498,109.854379 C90.0169655,111.174939 90.0384984,113.588561 89.2755135,114.883068 C88.1484731,116.795241 85.8411813,117.684869 83.5762494,117.080542 C82.1755033,116.7068 80.649389,115.310478 80.3951932,114.170031 C80.0355393,112.556444 79.9682841,112.551246 79.0976099,114.06975 C78.623917,114.895899 77.4106117,116.377231 76.4013756,117.361598 C72.4820909,121.184309 66.8532859,122.791327 61.4554126,121.628656 L61.4554126,121.628656 Z M66.8860021,120.742908 C72.5229866,119.725471 77.6812733,114.589823 78.7031952,108.977579 C79.1196264,106.690591 79.092445,103.846226 78.6556898,104.00648 C78.468312,104.07523 77.5045713,104.397747 76.5140417,104.723181 L74.7130805,105.314878 L74.5494908,107.257611 C74.2349986,110.992388 71.9973585,114.186725 68.4921339,115.904769 C66.746762,116.760241 66.41381,116.828825 64.0061507,116.828825 C61.6320232,116.828825 61.2516394,116.753354 59.639626,115.962454 C57.6993701,115.010508 55.8518139,113.351611 54.8624753,111.673111 C54.1095571,110.395718 53.3767177,107.769755 53.3767177,106.349231 L53.3767177,105.345348 L51.318655,104.656423 C48.8523813,103.830849 48.8683472,103.81384 49.0959207,107.02442 C49.3780994,111.005362 50.9992215,114.362698 53.9547108,117.08695 C57.4163628,120.277765 62.1103941,121.60487 66.8860021,120.742908 L66.8860021,120.742908 Z M46.146196,115.787945 C47.5146849,115.447756 48.4731478,114.604571 48.8423759,113.416039 C49.6880275,110.693929 47.0035534,108.401075 43.8363361,109.140296 C40.1224607,110.007106 40.0305195,114.819021 43.7095751,115.774649 C44.856149,116.072471 44.998503,116.073247 46.146196,115.787945 L46.146196,115.787945 Z M43.2665197,114.593533 C42.1396819,113.997826 41.6619911,112.451429 42.258146,111.329198 C43.287263,109.391953 46.158062,109.62144 46.8618149,111.697211 C47.2774298,112.92309 46.7316557,114.163902 45.5454155,114.690037 C44.5656578,115.124593 44.2454247,115.111032 43.2665197,114.593533 L43.2665197,114.593533 Z M45.4,113.4 C45.73,113.07 46,112.665 46,112.5 C46,112.335 45.73,111.93 45.4,111.6 C45.07,111.27 44.665,111 44.5,111 C44.335,111 43.93,111.27 43.6,111.6 C43.27,111.93 43,112.335 43,112.5 C43,112.665 43.27,113.07 43.6,113.4 C43.93,113.73 44.335,114 44.5,114 C44.665,114 45.07,113.73 45.4,113.4 L45.4,113.4 Z M86.146196,115.787945 C87.5146849,115.447756 88.4731478,114.604571 88.8423759,113.416039 C89.6880275,110.693929 87.0035534,108.401075 83.8363361,109.140296 C80.1224607,110.007106 80.0305195,114.819021 83.7095751,115.774649 C84.856149,116.072471 84.998503,116.073247 86.146196,115.787945 L86.146196,115.787945 Z M83.2665197,114.593533 C82.1396819,113.997826 81.6619911,112.451429 82.258146,111.329198 C83.287263,109.391953 86.158062,109.62144 86.8618149,111.697211 C87.2774298,112.92309 86.7316557,114.163902 85.5454155,114.690037 C84.5656578,115.124593 84.2454247,115.111032 83.2665197,114.593533 L83.2665197,114.593533 Z M85.4,113.4 C85.73,113.07 86,112.665 86,112.5 C86,112.335 85.73,111.93 85.4,111.6 C85.07,111.27 84.665,111 84.5,111 C84.335,111 83.93,111.27 83.6,111.6 C83.27,111.93 83,112.335 83,112.5 C83,112.665 83.27,113.07 83.6,113.4 C83.93,113.73 84.335,114 84.5,114 C84.665,114 85.07,113.73 85.4,113.4 L85.4,113.4 Z M68.6676384,115.025996 C71.6606645,113.584229 73.6247968,110.772829 73.9284802,107.495779 C74.0640716,106.032629 74.032713,105.891797 73.6069404,106.051668 C73.3474585,106.149098 72.474096,106.304838 71.6661364,106.397756 C70.3093764,106.553785 70.1966603,106.619687 70.1911585,107.26015 C70.1817963,108.349713 69.2889415,110.002924 68.2085811,110.931091 C66.3247293,112.549556 63.4196342,112.723005 61.4057172,111.337259 C59.9788799,110.355474 59.4094206,109.539815 59.0180043,107.917243 L58.6890474,106.553605 L57.2769467,106.391209 C56.5002914,106.301892 55.6525415,106.149098 55.3930596,106.051668 C54.967287,105.891797 54.9359284,106.032629 55.0715198,107.495779 C55.6793993,114.055397 62.6583828,117.92071 68.6676384,115.025996 L68.6676384,115.025996 Z M66.4954357,111.403691 C67.6754794,110.742154 68.5903353,109.372055 68.8479198,107.880582 L69,107 L64.5,107 C61.2075549,107 60,107.09704 60,107.361627 C60,108.108756 60.5847101,109.471393 61.2685968,110.318025 C62.6994571,112.089393 64.5767306,112.479321 66.4954357,111.403691 L66.4954357,111.403691 Z M48.9938955,107.008796 L48.9790986,104 L47.3192401,105.636853 C46.406318,106.53712 45.2860221,107.527821 44.8296908,107.838411 L44,108.403117 L45.3625235,108.439818 C46.2850759,108.464669 47.0889785,108.719636 47.8520728,109.229411 C48.4719364,109.643501 48.9857562,109.990243 48.9938955,109.999948 C49.0020348,110.009652 49.0020348,108.663634 48.9938955,107.008796 L48.9938955,107.008796 Z M84.3216442,107.51637 L86,107.168082 L84.8409656,106.498689 C84.2034991,106.130523 83.085008,105.192705 82.3554347,104.414648 L81.028935,103 L81.0144675,105.999999 L81,109 L81.8216458,108.432327 C82.2735517,108.120107 83.3985516,107.707928 84.3216442,107.51637 L84.3216442,107.51637 Z M38.4308787,108.722956 C41.0300275,108.262543 43.9659642,106.747414 46.1162966,104.756797 L48,103.013005 L45.8855033,101.990669 L43.7710095,100.968331 L42.7115147,101.944698 C42.1287898,102.4817 40.7987234,103.331527 39.755806,103.833205 C38.0112858,104.672377 37.6441682,104.745345 35.1666742,104.745345 C32.7083709,104.745345 32.3141915,104.66859 30.6422968,103.864354 C23.7652467,100.556269 22.0640557,91.9679177 27.2566153,86.7719759 L28.3098392,85.718066 L27.293357,83.8613813 C26.734293,82.8402066 26.1318073,82.0025927 25.9545024,82.0000171 C25.3600909,81.9913886 22.5369327,85.253748 21.6673277,86.9541607 C17.763431,94.5877699 20.9522703,103.821888 28.7559011,107.480974 C31.859666,108.936315 34.9713893,109.33577 38.4308787,108.722956 L38.4308787,108.722956 Z M97.4909449,108.724991 C100.299042,108.215347 103.118118,106.672616 105.381038,104.407167 C111.437225,98.3442147 111.550764,89.1202025 105.646011,82.8806908 L103.866223,81 L102.802033,83.1530979 L101.737839,85.3061986 L102.632633,86.20199 C103.923076,87.4938747 104.842658,89.1967805 105.376622,91.2833792 C106.653602,96.2734935 104.229564,101.336247 99.4309768,103.701226 C97.6286077,104.58952 97.2847828,104.660736 94.7984987,104.660736 C92.3441001,104.660736 91.9558961,104.583059 90.2893801,103.758497 C89.2864529,103.262265 87.9818365,102.383106 87.3902343,101.804807 L86.3145944,100.753358 L84.1572972,101.822009 L82,102.89066 L83.8785914,104.672437 C87.6291966,108.229754 92.3976516,109.649376 97.4909449,108.724991 L97.4909449,108.724991 Z M68.3651264,104.857959 C68.7143069,104.761729 69,104.543081 69,104.372076 C69,103.662512 67.6522394,102.091337 66.5830445,101.554468 C64.4921996,100.504606 62.4862134,100.954027 60.8833183,102.831427 C59.860819,104.029036 59.7326056,104.644142 60.4644766,104.840827 C61.2165169,105.042933 67.6433794,105.05687 68.3651264,104.857959 L68.3651264,104.857959 Z M73.5476844,104.478384 C74.2254441,104.27405 74.1702855,103.898745 73.1864904,102.020708 C72.1758054,100.091342 70.6231299,98.6748871 68.4566903,97.7058741 C67.1395177,97.1167202 66.4838827,97 64.4917192,97 C62.4917662,97 61.8455914,97.115938 60.5052693,97.7152522 C58.5071555,98.6086946 56.5213747,100.476762 55.6314106,102.300194 C54.5901992,104.433511 54.6352713,104.500421 57.3160841,104.800979 C58.7483138,104.961554 58.8039188,104.94317 58.9866443,104.248683 C59.4298727,102.564086 62.4102119,100.6162 64.5444769,100.6162 C66.705817,100.6162 69.1008067,102.212554 69.9919923,104.247183 C70.3648622,105.098471 70.3770155,105.10284 71.7118956,104.865534 C72.4513033,104.734087 73.2774095,104.559869 73.5476844,104.478384 L73.5476844,104.478384 Z M54.121979,103.317907 C55.3770615,98.1460327 61.648186,94.5827496 67.0064656,95.9968752 C70.4955345,96.9176911 73.3569302,99.5128875 74.4382869,102.737313 C74.936992,104.224363 74.8527402,104.211321 77.7258668,103.246166 C79.3812859,102.690069 79.3935803,102.46885 77.9374458,99.4387868 C76.7865367,97.0438646 73.9105626,94.0286833 71.6307933,92.8268748 C69.7999636,91.8617281 66.3870272,91 64.3953294,91 C62.3956609,91 58.9826255,91.8642706 57.1625564,92.8315298 C55.0096416,93.9756741 52.0062083,97.0569229 50.945191,99.2099759 C50.4538439,100.207032 50.032379,101.432017 50.0086012,101.932165 C49.9664987,102.817702 50.0121688,102.857315 51.7519332,103.444379 C53.9991704,104.202681 53.90606,104.207649 54.121979,103.317907 L54.121979,103.317907 Z M38.7467323,101.993715 C39.702995,101.527219 40.8261778,100.793061 41.2426956,100.362257 L42,99.5789717 L40.4010106,98.461566 L38.802024,97.3441603 L38.0511438,97.9841813 C35.1897057,100.423156 30.2866516,98.924241 29.1189662,95.2535201 C28.5306191,93.4040032 28.7662764,91.6659046 29.7962135,90.2584309 L30.5570121,89.2187536 L29.4370912,87.6093768 L28.3171703,86 L27.3828865,87.0518368 C26.8690292,87.6303456 26.1226659,88.7816301 25.7243014,89.610247 C25.1189067,90.8694927 25,91.4990608 25,93.4451684 C25,95.3809161 25.1212398,96.0296534 25.7190271,97.2925888 C28.1120807,102.348341 33.8071009,104.403423 38.7467323,101.993715 L38.7467323,101.993715 Z M98.7093617,101.988164 C100.785911,100.971397 102.254726,99.4644885 103.271507,97.3076987 C103.879979,96.0170123 104,95.3764273 104,93.4194967 C104,91.3402287 103.900624,90.875796 103.116944,89.2924985 C102.63126,88.3112616 101.877709,87.1690337 101.442383,86.7542145 L100.650882,86 L99.5506684,87.5857803 L98.4504579,89.1715607 L99.2260165,90.2690913 C102.785945,95.306926 96.3662757,101.685709 91.2873871,98.1571616 L90.185681,97.3917508 L88.5928419,98.4849701 L87,99.5781867 L87.6211723,100.239842 C88.4197371,101.090449 90.2926395,102.184012 91.7770466,102.666402 C93.7171429,103.296877 96.6157498,103.013284 98.7093617,101.988164 L98.7093617,101.988164 Z M48.6211562,100.294208 C51.2570308,94.4792017 50.0570572,88.0139349 45.5070203,83.5157508 C44.4374874,82.4584072 42.9245479,81.2536892 42.144928,80.8385982 C40.3205672,79.8672579 36.9196899,79 34.9350296,79 C32.1664493,79 26.9799496,80.6600464 27.0000583,81.5397506 C27.0131884,82.1142788 28.7812904,85.1682002 29.058339,85.0948869 C29.2024629,85.0567454 30.1831201,84.7208962 31.2375784,84.348552 C35.136716,82.971715 39.1119635,83.8621532 42.1156551,86.7851929 C45.2032268,89.7898662 46.1595356,94.7862626 44.3879306,98.6570979 C44.0048801,99.494036 43.7240601,100.206922 43.7638885,100.241289 C44.079922,100.513997 47.1999792,101.989596 47.482459,101.999949 C47.6802014,102.007198 48.1926161,101.239612 48.6211562,100.294208 L48.6211562,100.294208 Z M83.4167007,101.14612 C84.3556719,100.676487 85.1504913,100.270066 85.1829619,100.242962 C85.2154353,100.21586 84.9367551,99.4396181 84.5636785,98.5179835 C82.1136261,92.4654924 85.087007,86.094235 91.2477822,84.1955111 C93.9618944,83.3590367 96.7503327,83.5932177 99.2128212,84.8644414 C99.7173501,85.1248973 100.165779,85.2981092 100.209328,85.2493574 C100.44596,84.9844467 102,81.7111715 102,81.4776586 C102,80.649319 96.7026681,79 94.0421751,79 C92.0457709,79 88.6383071,79.8693206 86.8212091,80.8422315 C84.7420874,81.9554343 81.6814696,85.0917115 80.6584939,87.157295 C79.435862,89.6260219 78.8374253,92.5706079 79.0381738,95.1300287 C79.2540943,97.8828604 80.6900728,102 81.4342913,102 C81.5856436,102 82.4777268,101.615755 83.4167007,101.14612 L83.4167007,101.14612 Z M45,94.6698893 C45,92.5488086 44.9009776,92.0907933 44.086071,90.4425853 C43.0224168,88.2912704 41.5024514,86.8148611 39.2859841,85.7800435 C37.1156636,84.7667695 33.658214,84.7368983 31.4719626,85.712529 C30.6623832,86.0738117 30,86.4275318 30,86.4985723 C30,86.5696155 30.4731308,87.3072674 31.0514019,88.1377993 C31.7610533,89.1570225 32.2395028,89.5967996 32.5233645,89.4907818 C34.294971,88.8291033 35.3857822,88.7129322 36.6588785,89.0503431 C38.3832,89.5073478 39.0797327,89.9766192 40.0853131,91.3588253 C41.3393495,93.0825377 41.499014,95.264391 40.535072,97.5048366 C40.3862804,97.85067 40.7328953,98.2074972 41.9684776,98.9804837 L43.5981308,100 L44.2990654,98.5243528 C44.8759402,97.3098863 45,96.6276776 45,94.6698893 L45,94.6698893 Z M86.9164277,99.0915284 C87.6285772,98.591869 88.3140065,98.1112708 88.4396047,98.0235292 C88.5652058,97.9357904 88.4670378,97.3068485 88.221457,96.6258806 C87.05179,93.382542 88.9151463,89.9796534 92.3662314,89.0566295 C93.6307232,88.7184293 94.7180212,88.8347751 96.4842325,89.4972829 C96.7672396,89.6034371 97.2442487,89.1630939 97.9517635,88.1425589 C98.5282936,87.310958 99,86.5723566 99,86.5012219 C99,86.4300899 98.339611,86.0759146 97.532469,85.7141668 C95.3428036,84.7327995 91.9066957,84.7668406 89.7205916,85.7915546 C87.6893106,86.7436999 85.7436999,88.6893106 84.7915546,90.7205916 C83.7668406,92.9066957 83.7327995,96.3428036 84.7141668,98.532469 C85.0759146,99.339611 85.4280745,100 85.4967494,100 C85.5654215,100 86.2042782,99.5911878 86.9164277,99.0915284 L86.9164277,99.0915284 Z M36.7743574,98.6098365 C38.6223457,97.8251277 38.6593871,97.9107212 34.9343443,94.3580667 L31.4133315,91 L30.845665,91.6882705 C29.5865949,93.2148438 29.7510761,95.6469294 31.2214003,97.2440372 C32.7765179,98.9332492 34.8257423,99.437275 36.7743574,98.6098365 L36.7743574,98.6098365 Z M96.4517094,97.4465041 C98.6056761,96.4482705 99.5783937,94.0996949 98.6468025,92.1465557 C97.8901778,90.5602378 97.6048905,90.5883147 95.7779024,92.4288936 C94.8587439,93.3548912 93.3444222,94.6797027 92.4127417,95.3729176 C90.5646325,96.7479992 90.5464086,97.0235188 92.2602712,97.6781197 C93.5646458,98.1763144 95.054595,98.0939834 96.4517094,97.4465041 L96.4517094,97.4465041 Z M39.7993416,95.23 C40.2308265,94.1209004 39.9419254,92.2288564 39.1676338,91.0928796 C38.4039564,89.9724708 36.6190326,89 35.3262615,89 C34.2273122,89 33,89.4481092 33,89.8493492 C33,90.2451348 38.7958129,96 39.1944146,96 C39.3623664,96 39.6345848,95.6535 39.7993416,95.23 L39.7993416,95.23 Z M55.8462873,92.7224955 C56.674553,92.2468201 57.9479753,91.631299 58.6761125,91.3546659 L60,90.8517006 L58.2762762,89.9097048 C57.3282283,89.3916093 56.1744504,88.6029434 55.7123242,88.1571172 C55.0635651,87.5312405 54.5099577,87.3056581 53.2829333,87.1671851 C51.8799432,87.0088578 50.6475726,86.6663818 49.1939796,86.0308683 C48.8602059,85.8849428 48.945404,86.2386539 49.5412646,87.4726781 C50.5610518,89.5846479 51.2229142,92.850906 51.1005968,95.1678879 L51.0038743,97 L52.6721092,95.2936799 C53.5896405,94.3552046 55.0180188,93.1981709 55.8462873,92.7224955 L55.8462873,92.7224955 Z M77.9029394,95.1474286 C77.7772345,92.7997883 78.3989801,89.7337414 79.448839,87.5240301 C80.0524621,86.2535446 80.1409963,85.8856009 79.8085164,86.0292471 C78.3550612,86.6572066 77.1168482,86.9969693 75.7105949,87.1537052 C74.4801387,87.2908497 73.9249831,87.514268 73.2744096,88.1341403 C72.810991,88.5756895 71.6596679,89.3537213 70.7159157,89.8631003 L69,90.789242 L70.8040852,91.5376748 C73.3103284,92.577403 74.689539,93.5115649 76.4616128,95.3696102 C77.2998966,96.2485631 77.9898321,96.9821168 77.9948007,96.999726 C77.9997693,97.0173353 77.9584315,96.1838013 77.9029394,95.1474286 L77.9029394,95.1474286 Z M94.13776,93.0341992 C95.7734497,91.4030102 97.0604689,89.9122011 96.9978053,89.7212902 C96.8310217,89.2131745 95.0511553,88.8427039 93.8533704,89.0667918 C91.885547,89.434942 90,91.7103974 90,93.7169912 C90,94.7786221 90.4588153,96 90.8576217,96 C91.0260112,96 92.5020731,94.6653911 94.13776,93.0341992 L94.13776,93.0341992 Z M68.4236592,88.3450827 C69.2514147,88.0372641 70.3947178,87.3949327 70.9643346,86.9176824 L72,86.0499558 L70.9533132,85.8596358 C69.4322882,85.5830651 66.9185632,84.2798024 65.5530221,83.0598041 L64.3667858,82 L63.1805496,83.0598041 C61.8298173,84.2665737 59.3052939,85.5823361 57.8237584,85.8517262 C56.8430118,86.0300568 56.8313592,86.0456886 57.3027882,86.5505912 C59.4565631,88.8572884 64.7495604,89.7113802 68.4236592,88.3450827 L68.4236592,88.3450827 Z M18.146195,87.7879446 C19.5146833,87.4477558 20.4731459,86.6045712 20.8423757,85.4160392 C21.6880279,82.6939289 19.0035539,80.4010749 15.8363355,81.1402956 C12.1224605,82.0071062 12.0305202,86.8190206 15.7095742,87.7746485 C16.8561481,88.0724707 16.9985009,88.0732467 18.146195,87.7879446 L18.146195,87.7879446 Z M15.2665202,86.593533 C14.1396826,85.9978258 13.66199,84.451429 14.258147,83.3291983 C15.2872623,81.3919532 18.1580631,81.6214403 18.8618155,83.6972111 C19.2774289,84.9230904 18.7316565,86.1639022 17.545416,86.6900367 C16.5656574,87.124593 16.2454237,87.1110324 15.2665202,86.593533 L15.2665202,86.593533 Z M17.4,85.4 C17.73,85.07 18,84.665 18,84.5 C18,84.110918 16.8890805,83 16.5,83 C16.1109195,83 15,84.110918 15,84.5 C15,84.665 15.27,85.07 15.6,85.4 C15.93,85.73 16.335,86 16.5,86 C16.665,86 17.07,85.73 17.4,85.4 L17.4,85.4 Z M114.146196,87.7879446 C115.514685,87.4477558 116.473148,86.6045712 116.842376,85.4160392 C117.688028,82.6939289 115.003553,80.4010749 111.836336,81.1402956 C108.122461,82.0071062 108.03052,86.8190206 111.709575,87.7746485 C112.856149,88.0724707 112.998503,88.0732467 114.146196,87.7879446 L114.146196,87.7879446 Z M112.26652,86.593533 C111.139682,85.9978258 110.661991,84.451429 111.258146,83.3291983 C112.287263,81.3919532 115.158062,81.6214403 115.861815,83.6972111 C116.27743,84.9230904 115.731656,86.1639022 114.545415,86.6900367 C113.565658,87.124593 113.245425,87.1110324 112.26652,86.593533 L112.26652,86.593533 Z M114.4,85.4 C114.73,85.07 115,84.665 115,84.5 C115,84.335 114.73,83.93 114.4,83.6 C114.07,83.27 113.665,83 113.5,83 C113.335,83 112.93,83.27 112.6,83.6 C112.27,83.93 112,84.335 112,84.5 C112,84.665 112.27,85.07 112.6,85.4 C112.93,85.73 113.335,86 113.5,86 C113.665,86 114.07,85.73 114.4,85.4 L114.4,85.4 Z M53.4664848,83.379197 C52.6524697,81.6367631 52.1602719,79.5644777 52.1602719,77.8796983 L52.1602719,76.8622094 L50.9900893,76.8622094 C49.2400447,76.8622094 47.2151947,76.3610114 45.5216351,75.5086352 C43.7335281,74.6086752 43.6858061,74.7023467 44.5328752,77.4494466 C45.6018429,80.91619 48.4409605,83.672044 51.9037287,84.6041415 C54.3402188,85.2599863 54.3438155,85.2571684 53.4664848,83.379197 L53.4664848,83.379197 Z M57.8338078,85.4284233 C59.5570453,84.856529 61.9256651,83.2014673 62.6825486,82.0403887 C63.0518769,81.4738342 63.0267827,81.2842822 62.3762697,79.7267955 C60.8921919,76.173546 60.8893257,72.2271297 62.3684363,68.9327481 C63.1199726,67.2588679 63.1637475,67 62.6952698,67 C62.5116007,67 62.1437582,67.6699627 61.8778363,68.488806 C61.2301763,70.4831396 60.0793877,72.3841945 58.6820204,73.7681687 C57.5157578,74.9232524 55.0519845,76.4046313 53.7257982,76.7481684 C53.0362239,76.9267967 53,77.0193381 53,78.6023982 C53,81.4407912 54.6966654,86 55.7529445,86 C55.9501584,86 56.8865488,85.742791 57.8338078,85.4284233 L57.8338078,85.4284233 Z M74.4634354,84.6487783 C75.3528531,83.0834258 76,80.4834101 76,78.4753992 C76,77.0739976 75.9520599,76.9623921 75.274354,76.7861201 C73.8904258,76.4261544 71.4411491,74.9203213 70.1963892,73.6641466 C68.9456236,72.4019137 67.6351967,70.0786244 67.0396999,68.067573 C66.8658325,67.4804079 66.5546729,67 66.3482359,67 C65.826346,67 65.8759116,67.380557 66.59975,68.9310944 C68.2054225,72.3706097 68.2042298,76.3428695 66.5964226,80.0095842 C65.8547861,81.7009387 65.8758113,81.7843347 67.4241841,83.2926588 C68.8158147,84.6482915 72.1523586,86.1642907 73.3510096,85.9855818 C73.5630513,85.9539674 74.0636441,85.3524057 74.4634354,84.6487783 L74.4634354,84.6487783 Z M77.6567205,85.4315182 C81.9125662,84.1510291 84.981476,80.6272876 85.8054023,76.0751468 L86,75 L84.3058162,75.8293147 C82.415224,76.7547732 80.2025878,77.2907303 78.2725323,77.2907303 L76.989252,77.2907303 L76.9822024,78.7652848 C76.9726703,80.7596436 76.5427487,82.4516261 75.5548682,84.3826353 C74.5798038,86.2885939 74.6656849,86.3314514 77.6567205,85.4315182 L77.6567205,85.4315182 Z M108.440347,85.3281499 C108.217903,84.4589645 108.740137,82.5707466 109.446572,81.689991 L110,81 L107,81.0134176 L104,81.0268323 L105.403527,82.2329573 C106.175467,82.8963263 107.178174,84.0151733 107.631765,84.7192867 C108.085356,85.4234001 108.491561,85.9997213 108.534446,85.9999998 C108.577331,86.0002812 108.534985,85.697947 108.440347,85.3281499 L108.440347,85.3281499 Z M24.4782859,82.5861064 L26,81.028342 L22.9999999,81.0141725 L20,81 L20.653832,82.0156125 C21.0134397,82.5741988 21.4026911,83.6991976 21.518835,84.5156125 L21.7300057,86 L22.3432891,85.0719338 C22.680595,84.5615012 23.6413445,83.4428768 24.4782859,82.5861064 L24.4782859,82.5861064 Z M43.5365297,78.635941 C43.249015,77.8995326 42.9242945,76.5652751 42.8149271,75.6709243 C42.6604137,74.407391 42.4364653,73.8605877 41.8105076,73.2184899 C41.3674452,72.7640025 40.5854351,71.6289142 40.0727118,70.6960739 L39.1404846,69 L38.5322335,70.6216124 C37.7434598,72.724502 36.0246056,75.2089434 34.3397148,76.6815136 L33,77.8524003 L34.8421643,77.7556343 C37.1462715,77.6345988 40.0852578,78.2233878 42.2616413,79.2420289 C43.1809517,79.6723065 43.9615036,80.0132141 43.9962002,79.9996064 C44.0308968,79.9859987 43.8240444,79.3723467 43.5365297,78.635941 L43.5365297,78.635941 Z M65.3417868,78.4617237 C66.2172332,76.2477777 66.2197533,72.4603142 65.3472266,70.2893489 C64.6203606,68.4808042 64.3524896,68.5401148 63.5484501,70.6876341 C62.7762096,72.7502164 62.8263243,76.389144 63.6555131,78.4617237 C63.9939968,79.3077757 64.3750189,80 64.5022288,80 C64.6294387,80 65.0072385,79.3077757 65.3417868,78.4617237 L65.3417868,78.4617237 Z M90.3279057,78.0537859 C91.451306,77.8244583 93.1745842,77.685283 94.1802884,77.7426624 L96,77.8464814 L94.3129314,76.198242 C92.5033737,74.4303351 91.5730727,73.0443863 90.5306523,70.5634619 L89.8737252,69 L89.2216134,70.3284313 C88.862951,71.0590673 88.0879134,72.1895345 87.4993067,72.840581 C86.5871329,73.8495186 86.4030593,74.2703051 86.2526615,75.6903823 C86.1556093,76.6067253 85.8340606,77.9512572 85.5381027,78.6782312 L85,80 L86.6476173,79.2343629 C87.5538085,78.8132647 89.2099392,78.282005 90.3279057,78.0537859 L90.3279057,78.0537859 Z M24.9824812,78.8768982 C25.064431,78.7951142 24.8507891,77.8435826 24.507724,76.7623835 L23.8839694,74.7965697 L21.8754827,74.5940238 C15.6221181,73.9634046 11.0833952,68.0118207 12.3155523,62.0581797 C13.3295631,57.1585982 17.0613787,53.9181059 22.2858649,53.4005409 L23.884579,53.2421624 L24.5080302,51.2763486 C24.8509258,50.1951496 25.064431,49.243618 24.9824812,49.161834 C24.6403976,48.8204313 21.3076259,49.0515355 19.3435845,49.5528528 C16.4421209,50.2934458 14.7418348,51.27296 12.4659043,53.515003 C6.33557743,59.5540541 6.54183337,69.1547855 12.9286796,75.0561094 C14.7271546,76.7178669 17.7445155,78.3052753 19.866996,78.7062991 C21.3935229,78.9947244 24.7521874,79.1067336 24.9824812,78.8768982 L24.9824812,78.8768982 Z M108.872509,78.7095302 C111.592585,78.2164017 114.323297,76.7236654 116.515285,74.5316326 C122.494905,68.5518896 122.494905,59.4167745 116.515285,53.506913 C114.254292,51.2722975 112.561393,50.2973085 109.649013,49.552433 C107.690408,49.0514963 104.366865,48.8205676 104.025728,49.1617111 C103.944005,49.243433 104.156919,50.1942421 104.498866,51.2746203 L105.120591,53.2389415 L106.714878,53.4048281 C108.951615,53.6375616 110.305174,54.05694 111.721208,54.955957 C114.281994,56.5817547 115.756343,58.6147032 116.511007,61.5605103 C118.10052,67.7651159 113.597504,74.0135363 107.146805,74.5543511 L105.197286,74.7177949 L104.529498,76.7039949 C104.162217,77.7964044 103.932045,78.7605317 104.01801,78.8464985 C104.275676,79.1041671 107.14175,79.0233013 108.872509,78.7095302 L108.872509,78.7095302 Z M29.5097239,77.8971917 C32.3306777,76.5666362 35.079734,73.8158902 36.4327776,70.9698887 C39.2938135,64.9519593 38.1904937,58.4676696 33.5089163,53.7861798 C31.4346794,51.7119788 28.649384,50.0871364 27.0325264,50.0080808 C26.1749804,49.9661504 26.1303349,50.0204696 25.5014786,51.8708919 C24.8358682,53.8294639 24.9068317,54.20198 25.9488162,54.2191766 C26.6064091,54.2300305 29.0092164,55.7196858 30.1171709,56.8034065 C34.8921728,61.4739791 34.1277774,69.5923946 28.5720465,73.2137003 C27.6796885,73.795352 26.4802543,74.4121988 25.9066332,74.5844755 C24.733147,74.9369064 24.7279234,75.0263795 25.7225644,77.7375097 C26.3299347,79.3930386 26.3376482,79.3933626 29.5097239,77.8971917 L29.5097239,77.8971917 Z M103.460449,76.7934373 C103.761537,75.8335293 103.975468,75.0272491 103.93585,75.0017031 C103.896232,74.9761571 103.285375,74.7407633 102.57839,74.4786049 C98.7976788,73.0766748 96.0863277,69.4964559 95.6514296,65.3318621 C95.1728742,60.7492166 98.2577297,56.0055146 102.670373,54.5385649 C103.401667,54.2954508 104,54.0230969 104,53.9333328 C104,53.8435686 103.727036,52.9218474 103.393417,51.8850641 L102.786831,50 L101.834004,50.154762 C98.7888297,50.6493673 94.2497952,54.3316259 92.6225232,57.6275125 C88.5444657,65.8872316 92.4470251,75.6343241 101.045599,78.6651191 C102.727202,79.257844 102.674677,79.2985524 103.460449,76.7934373 L103.460449,76.7934373 Z M52.7220769,75.2272839 C53.629224,71.2824949 57.0018183,67.6312089 60.9876102,66.2787402 C61.5444246,66.0897997 62,65.7516646 62,65.5273308 C62,64.9551872 61.6374241,65.014323 60.1122333,65.8352227 C57.0730554,67.4709947 52.9325082,67.4488435 49.7282487,65.7796683 L48.2315398,65 L47.0479995,66.2337381 C46.3970518,66.9122937 45.5507426,68.1479789 45.1673168,68.9797033 C44.407768,70.6272978 43.8106578,73.0290173 44.0558289,73.4503664 C44.3645943,73.9810063 46.5266323,75.1447351 47.9680728,75.556157 C48.7811352,75.7882244 50.1426023,75.9865874 50.9935551,75.9969677 C52.4634262,76.0148951 52.5498033,75.9764337 52.7220769,75.2272839 L52.7220769,75.2272839 Z M82.0708737,74.4791243 C84.0621645,73.9036177 86,72.8028121 86,72.2471495 C86,71.2076176 84.72168,68.2875568 83.7105907,67.0174666 C82.0469763,64.9276958 81.5975667,64.764893 79.8141587,65.6059482 C76.618007,67.1132502 72.1492354,67.1231418 68.9829449,65.6299198 C67.3703979,64.8694439 67,64.8193946 67,65.3619801 C67,65.5769463 67.3509328,65.8297081 67.7798507,65.9236733 C69.3646493,66.2708648 72.4019212,67.9652369 73.6302882,69.1873971 C74.8884625,70.4392136 76.3888216,72.887052 76.7481684,74.2742266 C76.9267967,74.9637773 77.0193381,75 78.6023982,75 C79.5188164,75 81.0796324,74.7656069 82.0708737,74.4791243 L82.0708737,74.4791243 Z M56.7514949,74.1718304 C59.0067554,73.0159939 61.4235718,70.4403188 61.9200564,68.6635352 C62.1542416,67.8254483 61.9573877,67.8036672 60.1875771,68.471852 C58.3719229,69.1573471 55.7038532,71.4559523 54.7662985,73.1424149 C54.344833,73.9005382 54,74.6543376 54,74.8175248 C54,75.2251926 55.2842023,74.9238288 56.7514949,74.1718304 L56.7514949,74.1718304 Z M75.9331679,74.2289599 C75.25225,71.4786721 71.5215683,67.7861944 68.7340059,67.1035203 C67.9285138,66.9062544 67.9056963,66.9289369 68.1041366,67.7296617 C68.6527773,69.9434848 71.4052343,73.0823461 73.8674437,74.302056 C75.7838765,75.251404 76.1828099,75.2372859 75.9331679,74.2289599 L75.9331679,74.2289599 Z M43.6451123,68.4478773 C43.9943607,67.7862929 44.8920847,66.6150602 45.6400564,65.8451389 L47,64.4452832 L45.8084268,63.2812696 C44.4501949,61.9544513 43.5095912,60.4252616 42.8064887,58.4008566 L42.3199543,57 L41.6958,57.6022852 C40.7735721,58.4921945 39.6083298,60.725567 39.2237164,62.3404248 C38.5430395,65.1983413 39.459358,68.8636535 41.3782007,70.9584739 L42.3322314,72 L42.6711745,70.8253787 C42.8575895,70.1793371 43.2958639,69.1094618 43.6451123,68.4478773 L43.6451123,68.4478773 Z M89.3280991,69.2499764 C89.8390137,68.0288446 89.9909555,67.0666171 89.9998095,64.9960835 C90.0130603,61.8973683 89.3361115,59.8886145 87.6697828,58.0820468 L86.6717354,57 L86.4968232,58.0101552 C86.2205443,59.6057153 84.8649936,62.0204239 83.371828,63.5768583 L82,65.0068148 L83.21811,66.2452971 C84.6217413,67.6724032 86.1259759,70.3096873 86.4448144,71.9024815 L86.6645103,73 L87.6661703,71.9140381 C88.217084,71.3167582 88.9649517,70.1179313 89.3280991,69.2499764 L89.3280991,69.2499764 Z M59.3571429,65.2928835 C60.2607143,64.9697743 61,64.6027334 61,64.4772378 C61,64.3517422 60.2607143,63.9808083 59.3571429,63.6529375 C56.9677429,62.7859152 53.22072,62.781889 50.7857143,63.6437259 C49.8035714,63.9913389 49,64.3711246 49,64.4876885 C49,64.7152977 50.9422229,65.4625852 52.4846029,65.8284189 C54.0726771,66.2050923 57.5678057,65.9327388 59.3571429,65.2928835 L59.3571429,65.2928835 Z M78.3571429,65.2928835 C79.2607143,64.9697743 80,64.6027334 80,64.4772378 C80,64.3517422 79.2607143,63.9808083 78.3571429,63.6529375 C75.9677429,62.7859152 72.22072,62.781889 69.7857143,63.6437259 C68.8035714,63.9913389 68,64.3711246 68,64.4876885 C68,64.7152977 69.9422229,65.4625852 71.4846029,65.8284189 C73.0726771,66.2050923 76.5678057,65.9327388 78.3571429,65.2928835 L78.3571429,65.2928835 Z M65.4674688,65.5204754 C66.1597395,64.8939816 66.1767047,64.2576554 65.5204754,63.5325312 C64.8939816,62.8402605 64.2576554,62.8232953 63.5325312,63.4795246 C62.8402605,64.1060184 62.8232953,64.7423446 63.4795246,65.4674688 C64.1060184,66.1597395 64.7423446,66.1767047 65.4674688,65.5204754 L65.4674688,65.5204754 Z M51.0623653,63.0411082 C54.2734404,61.666142 58.0710175,61.7781567 61.0777051,63.3365228 C62.6316615,64.1419379 63,64.193124 63,63.6036446 C63,63.3687067 62.651021,63.090431 62.2244911,62.9852552 C60.7454658,62.6205465 58.1278862,61.0948718 56.7975923,59.8221451 C55.4528147,58.5355647 54.0605534,56.188859 53.412665,54.1167341 L53.0634999,53 L50.9111665,53.1433533 C48.5924257,53.2977913 46.1331572,54.1314271 44.8079844,55.2121901 L44,55.8711568 L44.5044587,57.7772948 C45.0539646,59.8536539 46.0478315,61.6207189 47.505495,63.1130474 C48.5206672,64.1523649 48.4644978,64.1534984 51.0623653,63.0411082 L51.0623653,63.0411082 Z M69.6260531,62.1496595 C72.7388079,60.8797778 76.3759368,60.9904961 79.3209857,62.4447856 C80.9465803,63.2475177 81.3858887,63.0920897 82.8770524,61.1866398 C84.0226324,59.7227874 84.8525276,57.7925105 84.9772376,56.3017613 C85.0566429,55.3525712 84.9834873,55.239881 83.8398548,54.5497332 C82.3672584,53.6610701 79.8791046,53 78.0069148,53 L76.6338745,53 L76.1363057,54.38957 C75.4697896,56.2509718 74.285497,58.0253125 72.8474467,59.3170382 C71.6472295,60.3951302 69.1117259,61.7777682 67.746929,62.0984069 C67.3189333,62.1989562 67,62.4544385 67,62.6967319 C67,63.1825812 67.1923709,63.142506 69.6260531,62.1496595 L69.6260531,62.1496595 Z M63.9608245,60.5273902 C63.8749203,60.2674548 63.4766736,59.3224809 63.0758289,58.4274444 C61.6862159,55.3246206 61.7988044,51.8078878 63.3883042,48.6671661 C64.0410506,47.3773897 64.0652697,47.203904 63.6668671,46.6717589 C62.9380947,45.6983447 60.3864042,44.056131 58.9292376,43.6227262 C55.9767832,42.7445713 55.7840639,42.7582716 55.0245168,43.9003399 C53.8663016,45.6418476 53.3166379,47.2705798 53.1549185,49.4402369 L53,51.5186452 L53.8340143,51.7029036 C55.485355,52.0677368 58.5667047,53.7890087 59.8295181,55.0520544 C61.110249,56.3330187 62.6375066,58.8378534 63.0032957,60.2573274 C63.1129571,60.6828842 63.3915921,61 63.6558429,61 C63.9621062,61 64.064548,60.8412517 63.9608245,60.5273902 L63.9608245,60.5273902 Z M66.1753092,61.2176667 C67.1359164,57.304 70.7072648,53.6815206 74.927948,52.3397222 L76,51.9989065 L76,50.344024 C76,48.3557053 75.1509862,45.4801437 74.1209987,43.9799584 C73.429871,42.9733258 73.2921538,42.9013824 72.3816757,43.0713536 C70.2264538,43.4737034 68.1533196,44.505106 66.5908652,45.9523346 L65,47.4258751 L65.7820234,49.0943617 C67.5648602,52.8981432 67.5839484,56.4800294 65.8409233,60.1464987 C65.0170642,61.8794922 64.9987936,62 65.5599142,62 C65.7927696,62 66.0696992,61.64795 66.1753092,61.2176667 L66.1753092,61.2176667 Z M61.9331679,61.2289599 C61.25225,58.4786721 57.5215683,54.7861944 54.7340059,54.1035203 C53.9285138,53.9062544 53.9056963,53.9289369 54.1041366,54.7296617 C54.6527773,56.9434848 57.4052343,60.0823461 59.8674437,61.302056 C61.7838765,62.251404 62.1828099,62.2372859 61.9331679,61.2289599 L61.9331679,61.2289599 Z M70.7514949,60.1718304 C73.0067554,59.0159939 75.4235718,56.4403188 75.9200564,54.6635352 C76.1542416,53.8254483 75.9573877,53.8036672 74.1875771,54.471852 C72.3719229,55.1573471 69.7038532,57.4559523 68.7662985,59.1424149 C68.344833,59.9005382 68,60.6543376 68,60.8175248 C68,61.2251926 69.2842023,60.9238288 70.7514949,60.1718304 L70.7514949,60.1718304 Z M65.3417868,58.4617237 C66.2172332,56.2477777 66.2197533,52.4603142 65.3472266,50.2893489 C64.6203606,48.4808042 64.3524896,48.5401148 63.5484501,50.6876341 C62.7762096,52.7502164 62.8263243,56.389144 63.6555131,58.4617237 C63.9939968,59.3077757 64.3750189,60 64.5022288,60 C64.6294387,60 65.0072385,59.3077757 65.3417868,58.4617237 L65.3417868,58.4617237 Z M41.5842404,56.0806617 C42.4538802,55.0629962 42.6865133,54.5386485 42.83869,53.2531855 C43.0037376,51.8589851 43.3472904,50.6253964 43.9695492,49.1926323 C44.1135011,48.8611768 43.7645736,48.9457832 42.5472382,49.5375051 C40.4350021,50.5642205 37.2419058,51.2075294 34.8817188,51.0818691 L33,50.9816834 L34.3007588,52.07597 C35.8672386,53.3937984 38.0701829,56.6304404 38.7286549,58.5815892 L39.2073399,60 L39.8619776,58.6650079 C40.2220271,57.9307602 40.9970465,56.767805 41.5842404,56.0806617 L41.5842404,56.0806617 Z M90.5169113,58.1819575 C91.384712,56.0326661 93.3505718,53.2200437 94.8686194,51.9558224 L96,51.0136175 L94.1113481,51.1160734 C91.7446541,51.244466 88.5625739,50.5925536 86.4499771,49.5464906 C85.2349751,48.9448768 84.8867164,48.8588561 85.0303924,49.1958525 C85.6533983,50.6571227 85.9939225,51.9071876 86.1549905,53.3242858 C86.3010282,54.6091324 86.52426,55.1384617 87.2754842,55.9812295 C87.7914518,56.5600728 88.5467638,57.71471 88.9539531,58.5470942 C89.3611453,59.3794757 89.7199523,60.0327124 89.7513062,59.9987321 C89.7826628,59.9647517 90.1271833,59.1472027 90.5169113,58.1819575 L90.5169113,58.1819575 Z M48.3993582,52.369247 C49.2903661,52.1345498 50.6291056,51.9425255 51.3743349,51.9425255 L52.7292946,51.9425255 L52.7292946,50.6692925 C52.7292946,48.7678991 53.2627356,46.5677576 54.1809366,44.6820838 L55,43 L53.8928814,43.1790338 C49.2988864,43.9219309 45.3019234,47.6904178 44.259881,52.2613959 C43.8000394,54.278513 43.8269156,54.3089508 45.3697011,53.518343 C46.1450032,53.121038 47.5083475,52.6039443 48.3993582,52.369247 L48.3993582,52.369247 Z M85.5006051,51.4455798 C84.2092082,47.1002885 80.7002601,44.0271758 76.0793291,43.1944922 L75,43 L75.8325407,44.693265 C76.7615992,46.582832 77.2996411,48.7942682 77.2996411,50.7232771 L77.2996411,52.0058614 L78.6389515,52.0103627 C80.4498993,52.0164488 82.7840692,52.6167833 84.4896232,53.515118 C86.2217237,54.4274347 86.3243572,54.2173409 85.5006051,51.4455798 L85.5006051,51.4455798 Z M37.8360395,49.7467003 C45.7938242,48.3017453 51.3869976,39.8783975 49.6980541,31.8824473 C49.3209431,30.0970995 47.9573025,27 47.5483322,27 C47.2225418,27 44.583833,28.2818494 44.0824041,28.6837007 C43.8602763,28.8617203 43.9722125,29.4087183 44.4827201,30.6399005 C45.0620459,32.0370493 45.1933036,32.8006235 45.2018785,34.8235128 C45.2114311,37.0775714 45.1321977,37.4611428 44.3125838,39.1286677 C43.1380889,41.5182146 41.5161724,43.1534316 39.1760834,44.3072895 C37.4210413,45.1726699 37.0897844,45.2411944 34.6741237,45.2385721 C32.4283556,45.2361362 31.8502294,45.1345522 30.5070333,44.5063704 C29.3504413,43.9654566 28.8811702,43.8598731 28.6908825,44.0977383 C28.2825065,44.6082287 27,47.2502971 27,47.5810946 C27,47.9930047 30.197193,49.4123806 31.8294454,49.7250986 C33.7020353,50.0838617 35.9349589,50.0918934 37.8360395,49.7467003 L37.8360395,49.7467003 Z M96.936619,49.7201184 C98.7874051,49.3783311 102,48.0093622 102,47.5624855 C102,47.3234993 100.47018,44.0622738 100.226175,43.781099 C100.191591,43.7412479 99.4346956,44.0482731 98.5441811,44.4633747 C97.1357953,45.1198768 96.5851261,45.2184742 94.3132436,45.2209323 C91.9271943,45.2235165 91.5475423,45.1480811 89.9212029,44.3482526 C84.471279,41.6679978 82.1072412,35.1263173 84.7315191,29.9875485 C85.1325517,29.2022633 85.1742539,28.9110696 84.9153964,28.7035653 C84.3987156,28.2893763 81.7549883,27 81.4224263,27 C80.9664746,27 79.8401374,29.6493374 79.3358422,31.907993 C77.8649605,38.4958413 81.3388077,45.5181796 87.5389364,48.4904476 C90.5598276,49.9386281 93.5995866,50.3363747 96.936619,49.7201184 L96.936619,49.7201184 Z M18.146195,47.7879446 C19.5146833,47.4477558 20.4731459,46.6045712 20.8423757,45.4160392 C21.6880279,42.6939289 19.0035539,40.4010749 15.8363355,41.1402956 C12.1224605,42.0071062 12.0305202,46.8190206 15.7095742,47.7746485 C16.8561481,48.0724707 16.9985009,48.0732467 18.146195,47.7879446 L18.146195,47.7879446 Z M15.2665202,46.593533 C14.1396826,45.9978258 13.66199,44.451429 14.258147,43.3291983 C15.2872623,41.3919532 18.1580631,41.6214403 18.8618155,43.6972111 C19.2774289,44.9230904 18.7316565,46.1639022 17.545416,46.6900367 C16.5656574,47.124593 16.2454237,47.1110324 15.2665202,46.593533 L15.2665202,46.593533 Z M17.4,45.4 C17.73,45.07 18,44.665 18,44.5 C18,44.110918 16.8890805,43 16.5,43 C16.1109195,43 15,44.110918 15,44.5 C15,44.665 15.27,45.07 15.6,45.4 C15.93,45.73 16.335,46 16.5,46 C16.665,46 17.07,45.73 17.4,45.4 L17.4,45.4 Z M24.4901044,46.7298161 C23.6596602,46.0436981 22.6082178,45.0893705 22.1535636,44.6090879 C21.6989097,44.1288054 21.4184247,43.8803084 21.530264,44.0568753 C21.8602943,44.5779082 21.3883151,46.2848025 20.6682118,47.1744554 L20,48 L23.0000001,47.9886504 L26,47.9773032 L24.4901044,46.7298161 L24.4901044,46.7298161 Z M109.352329,47.1647657 C108.996111,46.7053874 108.614847,45.8053886 108.505074,45.1647657 L108.305488,44 L107.1816,45.2443014 C106.563464,45.9286685 105.594729,46.8234226 105.028856,47.2326485 L104,47.9766917 L106.999999,47.9883446 L110,48 L109.352329,47.1647657 L109.352329,47.1647657 Z M114.146196,47.7879446 C115.514685,47.4477558 116.473148,46.6045712 116.842376,45.4160392 C117.688028,42.6939289 115.003553,40.4010749 111.836336,41.1402956 C108.122461,42.0071062 108.03052,46.8190206 111.709575,47.7746485 C112.856149,48.0724707 112.998503,48.0732467 114.146196,47.7879446 L114.146196,47.7879446 Z M112.26652,46.593533 C111.139682,45.9978258 110.661991,44.451429 111.258146,43.3291983 C112.287263,41.3919532 115.158062,41.6214403 115.861815,43.6972111 C116.27743,44.9230904 115.731656,46.1639022 114.545415,46.6900367 C113.565658,47.124593 113.245425,47.1110324 112.26652,46.593533 L112.26652,46.593533 Z M114.4,45.4 C114.73,45.07 115,44.665 115,44.5 C115,44.335 114.73,43.93 114.4,43.6 C114.07,43.27 113.665,43 113.5,43 C113.335,43 112.93,43.27 112.6,43.6 C112.27,43.93 112,44.335 112,44.5 C112,44.665 112.27,45.07 112.6,45.4 C112.93,45.73 113.335,46 113.5,46 C113.665,46 114.07,45.73 114.4,45.4 L114.4,45.4 Z M27.1161398,46.1001632 C27.6706134,45.0552541 28.1202345,44.0688905 28.1152996,43.908244 C28.1103648,43.7476004 27.6590705,43.1707071 27.1124288,42.6262626 C25.7955516,41.3146832 24.7630095,39.1403701 24.3718321,36.855143 C23.4721688,31.5993677 26.7553938,26.4310541 32.029361,24.8009846 C35.8585975,23.6174529 39.7529675,24.5358671 42.7681598,27.3335337 C43.2829653,27.8112024 43.8191297,28.2020202 43.9596368,28.2020202 C44.1001411,28.2020202 45.0667017,27.7336028 46.1075504,27.1610933 L48,26.1201665 L46.1812309,24.4035176 C45.1809094,23.4593604 43.7072311,22.3340876 42.9063917,21.9029105 C41.04116,20.8986592 37.5306188,20 35.472824,20 C33.4165525,20 29.9069074,20.8979546 28.0353191,21.9029105 C25.8938497,23.0527795 22.7414527,26.2923608 21.6878005,28.4259806 C19.2991671,33.2628986 19.4542747,38.9202279 22.0997747,43.4521467 C22.7157262,44.5073139 25.7330211,48 26.0286165,48 C26.072281,48 26.5616662,47.1450752 27.1161398,46.1001632 L27.1161398,46.1001632 Z M108.409576,42.1852567 C111.331371,36.0657049 110.173874,29.3576331 105.378159,24.6171947 C103.040985,22.3069581 101.291045,21.2989753 98.2805359,20.5288915 C95.523721,19.8237028 93.4765357,19.8237028 90.7197207,20.5288915 C87.8948703,21.2514842 86.1161549,22.2404722 83.8430874,24.3523905 L82,26.0648086 L84.0933126,27.2312309 L86.1866224,28.3976532 L86.7502499,27.7458388 C88.4111193,25.8251039 92.085627,24.1957837 94.7411749,24.2025708 C101.126835,24.2188905 106.269491,29.897986 105.674016,36.2758284 C105.475033,38.4070391 104.595709,40.4307795 102.992485,42.4473072 L101.817857,43.9247418 L102.843825,45.9623723 L103.869791,48 L105.647677,46.1231112 C106.786676,44.9206898 107.779173,43.5056082 108.409576,42.1852567 L108.409576,42.1852567 Z M65.7301434,44.9648039 C67.027523,43.7753727 68.5555312,42.938842 70.5818358,42.3086727 L72,41.8676336 L70.9791972,41.0302043 C67.6378701,38.2890988 61.2317027,38.3302989 57.9943015,41.1137138 L57,41.9685827 L58.0485943,42.1624238 C59.5094855,42.4324839 62.4174952,43.9996614 63.4790382,45.0889865 C63.9673159,45.5900434 64.4195052,46 64.4839069,46 C64.5483059,46 65.1091126,45.5341623 65.7301434,44.9648039 L65.7301434,44.9648039 Z M39.6042844,42.9758132 C41.7046402,41.9449559 43.1902946,40.4171649 44.2187321,38.2304866 C45.2333844,36.0731235 45.2635385,32.6348669 44.2868614,30.4623639 L43.6294342,29 L42.6147903,29.5740468 C42.0567342,29.8897751 41.3255909,30.3728651 40.990028,30.6475809 C40.4164894,31.1171227 40.4031823,31.2121523 40.768041,32.2328206 C42.4761186,37.0110253 38.0233973,41.4354135 33.2222645,39.7305846 C32.6129905,39.5142376 32.0968354,39.3629357 32.0752544,39.3943585 C32.0536733,39.4257813 31.5779148,40.1384182 31.0180105,40.9779925 L30,42.5044928 L30.7669234,42.9075678 C33.491826,44.3397103 36.7737277,44.3650532 39.6042844,42.9758132 L39.6042844,42.9758132 Z M97.5332769,43.2515356 L99,42.616635 L98.424242,41.6032461 C98.1075726,41.0458802 97.6230425,40.3156412 97.3475078,39.9804933 C96.8765663,39.4076641 96.7812535,39.3943734 95.7575426,39.7587808 C93.6002298,40.526719 91.6195823,40.1467254 89.8373417,38.6229751 C87.8977646,36.9647071 87.3533358,34.1246929 88.4744537,31.5134624 C88.6001703,31.2206552 88.1990421,30.7792912 87.1419302,30.047276 C86.3101201,29.4712742 85.5713329,29 85.5001803,29 C85.4290305,29 85.0747661,29.6597839 84.7129273,30.4661864 C83.7401931,32.6340561 83.7660477,36.0886426 84.7710226,38.228772 C86.0541379,40.9612073 88.0841432,42.7492509 90.9739299,43.6923411 C92.6530455,44.2403234 95.7261016,44.0338061 97.5332769,43.2515356 L97.5332769,43.2515356 Z M53.2464833,42.9587049 C54.4736305,42.8208592 55.0271232,42.5963828 55.6758415,41.9734474 C56.1379112,41.5297402 57.2998746,40.7402955 58.2579848,40.219125 L60,39.2715388 L58.5918032,38.79535 C56.6397877,38.1352651 53.3819152,35.9076069 52.0519901,34.3235782 L50.9407365,33 L51.0600494,34.6793529 C51.2540493,37.4098971 50.6506982,40.1206927 49.0112488,43.8843851 C48.9202666,44.0932533 49.3851578,44.0161715 50.2618442,43.6770289 C51.0293215,43.3801358 52.372409,43.0568903 53.2464833,42.9587049 L53.2464833,42.9587049 Z M78.3808464,42.3418299 C77.3341554,40.1085217 76.7319268,37.1485027 76.8546545,34.840443 L76.9525149,33 L75.7661251,34.3410172 C74.3136389,35.9828118 71.7199066,37.7471218 69.5916615,38.5410162 L68,39.1347469 L69.7152553,40.066103 C70.6586455,40.5783472 71.8124416,41.3736621 72.2792471,41.8334658 C72.8288194,42.3747978 73.4132081,42.67101 73.9371758,42.673826 C74.9851385,42.6794609 77.6059938,43.3080118 78.30958,43.722447 C79.2147031,44.25559 79.2209603,44.1343698 78.3808464,42.3418299 L78.3808464,42.3418299 Z M29.6309268,40.2987447 C30.6094574,38.8874125 30.6182497,38.8509587 30.0953396,38.3733538 C29.2613552,37.6116331 28.6228408,35.2110894 28.8491295,33.6881361 C29.2065092,31.2829283 31.4115149,29.1901949 33.9505195,28.846497 C35.2193972,28.6747303 37.571268,29.3845682 38.2532794,30.145148 C38.7037727,30.6475408 38.7725134,30.6272021 40.359486,29.5219787 L42,28.3794673 L41.2418321,27.5807934 C40.8248385,27.1415226 39.6766232,26.3811436 38.6902429,25.8910583 C37.0986462,25.100276 36.631779,25 34.5416119,25 C31.6646558,25 29.7256104,25.7951256 27.7567249,27.7822102 C25.7893237,29.7678024 25,31.7267739 25,34.6239556 C25,36.5952653 25.1212263,37.2559205 25.7189467,38.5420576 C26.513851,40.25248 28.1559018,42.3101849 28.4471472,41.960852 C28.5496474,41.8379053 29.0823475,41.0899566 29.6309268,40.2987447 L29.6309268,40.2987447 Z M103.119605,38.6839066 C103.901439,37.0919994 104,36.6271192 104,34.5313857 C104,32.4257672 103.903184,31.9743249 103.101577,30.3421594 C102.055968,28.2131793 100.561791,26.752098 98.3829279,25.7280238 C97.0900911,25.1203828 96.4465695,25 94.4912128,25 C92.5330696,25 91.899608,25.1188384 90.6325745,25.7238853 C89.798833,26.1220209 88.6404284,26.8679554 88.0583418,27.3815176 L87,28.3152646 L88.6286678,29.4410014 L90.2573357,30.5667381 L91.0659712,29.9416533 C91.5107234,29.5978576 92.4633467,29.1587342 93.1829111,28.9658217 C96.4841526,28.0807759 99.8263535,30.4896969 100.189421,34.0158262 C100.344516,35.5221277 99.893265,37.0209395 98.8566749,38.4424863 C98.5789439,38.8233549 98.7016817,39.1603598 99.5878511,40.4500945 L100.65278,42 L101.445995,41.2382489 C101.882261,40.8192851 102.635384,39.6698304 103.119605,38.6839066 L103.119605,38.6839066 Z M37.5010894,39.3830143 C39.495459,38.3260845 40.513133,35.7546481 39.7417508,33.7213677 C39.5912307,33.3246141 39.3372079,33 39.1772535,33 C38.7962992,33 33,38.8108106 33,39.1927212 C33,39.3541747 33.2841246,39.6007266 33.631388,39.7406131 C34.7418256,40.1879195 36.2442569,40.0490821 37.5010894,39.3830143 L37.5010894,39.3830143 Z M96.2768614,39.7467616 C96.674589,39.5947302 97,39.3427967 97,39.1869107 C97,38.6877799 91.1185466,32.8771796 90.7396537,33.0019814 C90.2164375,33.1743237 89.8403355,34.9418998 90.06766,36.1601716 C90.295974,37.3837635 91.7009846,39.099868 92.9070003,39.6281953 C93.9292925,40.0760386 95.2901779,40.123922 96.2768614,39.7467616 L96.2768614,39.7467616 Z M37.954197,31.0203151 C35.6248343,29.4360924 33.035061,29.7122774 31.2025182,31.7403491 C29.7551646,33.3421331 29.5930243,35.7795822 30.8320122,37.3101128 L31.3904882,38 L34.8544963,34.6340455 C37.3628042,32.1967389 38.2179973,31.1997293 37.954197,31.0203151 L37.954197,31.0203151 Z M68.0681936,37.7492073 C71.8802025,37.0801146 76.200867,34.1747626 78.2245931,30.9197171 C79.4649132,28.9247387 80.3209726,26.551563 79.8847571,26.3173979 C79.4303909,26.0734898 75.9643377,24.983796 75.9101633,25.0678238 C75.8860437,25.1052365 75.6438037,25.7171967 75.3718513,26.4277342 C73.1483353,32.2371911 66.0509163,35.0533584 60.4727911,32.3394879 C59.5467049,31.8889294 58.4527581,31.2297836 58.0418015,30.8747213 C56.7290215,29.7404963 55.3499919,27.7860198 54.8649984,26.3722862 C54.6060726,25.61753 54.3533288,25 54.3033442,25 C54.2533623,25 53.2848346,25.3048064 52.1510644,25.6773496 C51.0172942,26.0498901 50.0601767,26.3555496 50.024139,26.356593 C49.781074,26.363619 51.4362766,30.1052745 52.1765338,31.2221733 C54.1800353,34.245048 58.4262027,37.0911999 61.8758562,37.7235102 C63.8367646,38.0829386 66.1130099,38.0923828 68.0681936,37.7492073 L68.0681936,37.7492073 Z M98.4958865,36.7727459 C100.4256,33.024592 96.4765732,28.8372275 92.3898528,30.2981854 C90.3096006,31.0418549 90.3372302,31.1151726 94.0394416,34.6756188 C95.9177274,36.4819805 97.5421537,37.9776725 97.6492735,37.999381 C97.7563963,38.0210894 98.1373713,37.4691019 98.4958865,36.7727459 L98.4958865,36.7727459 Z M68.488276,31.2222462 C70.6261949,30.3089011 72.1887277,28.9175326 73.2024822,27.0244409 C74.4587925,24.6784013 74.4184063,24.604797 71.7119443,24.3079717 L70.2590015,24.148621 L69.9012454,25.0718391 C69.2169292,26.8377771 66.6894153,28.395377 64.5081423,28.395377 C62.3524409,28.395377 60.0160729,26.9581313 59.1669828,25.1096959 L58.6572344,24 L56.9344794,24.3354734 C55.9869635,24.5199834 55.1371237,24.7405606 55.0459452,24.8256441 C54.7669455,25.0859934 55.8112556,27.3184705 56.755343,28.4799129 C57.8289285,29.8006693 59.8901689,31.1412503 61.6637752,31.6722386 C63.5780018,32.2453258 66.5526026,32.0491873 68.488276,31.2222462 L68.488276,31.2222462 Z M66.7373497,26.3682613 C67.9690262,25.7042697 69.3502427,23.7998342 68.9195636,23.3593983 C68.6201154,23.0531636 62.7975027,22.8679917 61.1908535,23.1136099 C59.6932189,23.3425601 59.6323854,23.7357021 60.8719013,25.1748832 C62.5216949,27.0904307 64.6097182,27.5152578 66.7373497,26.3682613 L66.7373497,26.3682613 Z M47.9882209,22.9994781 L48,20 L47.1303013,20.6619873 C46.6519685,21.0260804 45.7519689,21.4095281 45.1303039,21.5140932 L44,21.7042118 L45.5355567,23.1375683 C46.3801126,23.9259129 47.2590839,24.8927009 47.4888236,25.285984 C47.718566,25.6792672 47.9222669,26.0005743 47.9414905,25.9999992 C47.960714,25.9994271 47.9817449,24.6491901 47.9882209,22.9994781 L47.9882209,22.9994781 Z M83.6514932,22.92258 L85,21.6944919 L83.8661857,21.5044057 C83.2425874,21.3998585 82.3425882,21.0185978 81.8661869,20.6571598 L81,20 L81.0117315,23.0000001 L81.0234604,26 L81.6632234,25.0753333 C82.0150938,24.566768 82.9098139,23.5980289 83.6514932,22.92258 L83.6514932,22.92258 Z M53.3043587,22.9697739 C53.4188977,21.3752882 53.9672268,19.0801558 54.4704393,18.0889396 C56.7502899,13.5981341 61.916083,11.1934709 66.5963368,12.4443658 C71.1469355,13.6606073 74.0172904,17.1635755 74.5839933,22.1924668 L74.7745763,23.8836993 L76.7387141,24.5075883 C77.8189913,24.8507266 78.7697117,25.0644197 78.8514259,24.9824576 C78.9331429,24.9004983 79,24.0602338 79,23.1152008 C79,19.0097123 77.4875682,15.4115548 74.5292482,12.4790384 C72.2684202,10.2379286 70.5756446,9.26010693 67.6634771,8.51306586 C64.9967168,7.82897805 63.0164052,7.82897805 60.3496448,8.51306586 C57.4498319,9.25693765 55.7546165,10.2405805 53.5066093,12.4837131 C51.2786469,14.7068438 50.3029175,16.3993411 49.5523814,19.3427166 C49.0514915,21.3070521 48.8205844,24.6403228 49.161696,24.9824576 C49.2434103,25.0644197 50.1941306,24.8512297 51.2744079,24.5087066 C53.167564,23.9084416 53.2409228,23.8528268 53.3043587,22.9697739 L53.3043587,22.9697739 Z M57.7503487,22.4879186 C58.9715491,22.3315572 59.0017635,22.3037614 59.1839025,21.1691613 C59.4168766,19.7178835 60.7916926,17.9968206 62.3091142,17.2568668 C63.8044564,16.5276794 66.1597264,16.517471 67.6852434,17.2335647 C69.1736176,17.9322246 70.5803334,19.7005179 70.8160975,21.1691613 C70.9982365,22.3037614 71.0284509,22.3315572 72.2496513,22.4879186 C72.9357734,22.5757677 73.8352883,22.7269245 74.2485716,22.8238229 L75,23 L74.8436369,21.3891315 C74.5248349,18.1048765 72.4756801,15.3252063 69.2950531,13.8625055 C67.6227525,13.0934499 67.1580422,13 65.0059568,13 C62.9821274,13 62.3318026,13.1140938 60.9788253,13.7065243 C57.7592258,15.1162987 55.4723609,18.1337648 55.1563631,21.3891315 L55,23 L55.7514284,22.8238229 C56.1647117,22.7269245 57.0642266,22.5757677 57.7503487,22.4879186 L57.7503487,22.4879186 Z M68.8431722,22.0958587 C68.3326003,19.1525551 65.374123,17.23986 62.9592349,18.2918149 C61.9458052,18.7332773 60.7706325,20.0494665 60.3301586,21.2363724 C59.6605024,23.0408313 59.5641725,22.999923 64.4829641,22.999923 L69,22.999923 L68.8431722,22.0958587 L68.8431722,22.0958587 Z M46.146196,19.787945 C47.5146849,19.4477564 48.4731478,18.60457 48.8423759,17.4160394 C49.6880275,14.6939294 47.0035534,12.4010747 43.8363361,13.1402957 C40.1224607,14.0071051 40.0305195,18.8190217 43.7095751,19.7746494 C44.856149,20.0724701 44.998503,20.0732468 46.146196,19.787945 L46.146196,19.787945 Z M43.2665197,18.5935325 C42.1396819,17.9978275 41.6619911,16.4514281 42.258146,15.3291989 C43.287263,13.3919528 46.158062,13.6214408 46.8618149,15.69721 C47.2774298,16.9230919 46.7316557,18.1639029 45.5454155,18.6900386 C44.5656578,19.124593 44.2454247,19.1110318 43.2665197,18.5935325 L43.2665197,18.5935325 Z M45.4,17.4 C45.73,17.07 46,16.665 46,16.5 C46,16.1109195 44.889082,15 44.5,15 C44.110918,15 43,16.1109195 43,16.5 C43,16.665 43.27,17.07 43.6,17.4 C43.93,17.73 44.335,18 44.5,18 C44.665,18 45.07,17.73 45.4,17.4 L45.4,17.4 Z M86.146196,19.787945 C87.5146849,19.4477564 88.4731478,18.60457 88.8423759,17.4160394 C89.6880275,14.6939294 87.0035534,12.4010747 83.8363361,13.1402957 C80.1224607,14.0071051 80.0305195,18.8190217 83.7095751,19.7746494 C84.856149,20.0724701 84.998503,20.0732468 86.146196,19.787945 L86.146196,19.787945 Z M83.2665197,18.5935325 C82.1396819,17.9978275 81.6619911,16.4514281 82.258146,15.3291989 C83.287263,13.3919528 86.158062,13.6214408 86.8618149,15.69721 C87.2774298,16.9230919 86.7316557,18.1639029 85.5454155,18.6900386 C84.5656578,19.124593 84.2454247,19.1110318 83.2665197,18.5935325 L83.2665197,18.5935325 Z M85.4,17.4 C85.73,17.07 86,16.665 86,16.5 C86,16.1109195 84.889082,15 84.5,15 C84.110918,15 83,16.1109195 83,16.5 C83,16.665 83.27,17.07 83.6,17.4 C83.93,17.73 84.335,18 84.5,18 C84.665,18 85.07,17.73 85.4,17.4 L85.4,17.4 Z" id="path2232" sketch:type="MSShapeGroup"></path>
        </g>
    </g>
</svg>