<?xml version="1.0" encoding="UTF-8" standalone="no"?>
<svg width="30px" height="44px" viewBox="0 0 30 44" version="1.1" xmlns="http://www.w3.org/2000/svg" xmlns:xlink="http://www.w3.org/1999/xlink">
    <!-- Generator: Sketch 3.7.2 (28276) - http://www.bohemiancoding.com/sketch -->
    <title>map-marker</title>
    <desc>Created with Sketch.</desc>
    <defs></defs>
    <g id="Page-1" stroke="none" stroke-width="1" fill="none" fill-rule="evenodd">
        <path d="M15,0.5 C6.7152,0.5 0,7.2152 0,15.5 C0,16.7994286 0.144685714,18.4492571 0.765942857,20.1820571 C4.1088,29.5139429 15,43.3571429 15,43.3571429 C15,43.3571429 25.8912,29.5139429 29.2340571,20.1820571 C29.8553143,18.4492571 30,16.7994286 30,15.5 C30,7.2152 23.2848,0.5 15,0.5 L15,0.5 Z M15,10.4990857 L15,10.4990857 C16.3261714,10.4990857 17.5981714,11.0270857 18.5355429,11.9644571 C19.4756571,12.9018286 20.0009143,14.1738286 20.0009143,15.5 C20.0009143,16.8261714 19.4729143,18.0981714 18.5355429,19.0355429 C17.5981714,19.9756571 16.3261714,20.5009143 15,20.5009143 C13.6738286,20.5009143 12.4018286,19.9729143 11.4644571,19.0355429 C10.5243429,18.0981714 9.99908571,16.8261714 9.99908571,15.5 C9.99908571,14.1738286 10.5270857,12.9018286 11.4644571,11.9644571 C12.4018286,11.0243429 13.6738286,10.4990857 15,10.4990857 L15,10.4990857 Z" id="map-marker" fill="#000000"></path>
    </g>
</svg>