<svg xmlns="http://www.w3.org/2000/svg" width="40" height="40" viewBox="0 0 40 40"><path fill-rule="evenodd" d="M31.26 12.146c-.01-.05-.014-.105-.032-.15-.02-.05-.054-.096-.086-.14-.02-.028-.03-.06-.053-.085l-.01-.005c-.044-.045-.093-.073-.145-.104-.028-.018-.052-.043-.082-.055-.037-.017-.077-.017-.116-.027-.052-.012-.101-.031-.157-.031l-.014-.002H9.715l-.013.002c-.067 0-.125.02-.184.035-.03.01-.062.01-.09.021-.035.016-.063.043-.095.065-.046.03-.093.054-.132.096l-.013.005c-.021.026-.033.057-.05.084-.033.045-.066.09-.086.14-.018.046-.024.1-.032.151-.006.036-.02.067-.02.104v14.8c0 .038.014.067.02.102.008.053.014.106.032.153.02.048.053.093.085.138.018.028.03.06.051.084.004.004.009.004.013.008a.668.668 0 0 0 .21.147c.01.004.016.011.022.015.09.037.186.057.281.057h20.851c.095 0 .19-.02.28-.057.007-.004.014-.011.022-.015a.706.706 0 0 0 .212-.147c.002-.004.008-.004.01-.008.023-.023.034-.056.053-.084.032-.045.066-.09.086-.138.018-.047.022-.1.031-.153.004-.035.02-.064.02-.101V12.25c0-.037-.016-.068-.02-.104zM11.54 26.348l6.312-5.74 1.802 1.64a.732.732 0 0 0 .486.187.729.729 0 0 0 .484-.188l1.803-1.64 6.313 5.74h-17.2zm-1.112-12.492l6.37 5.794-6.37 5.795v-11.59zm18.312-.903l-8.6 7.819-8.6-7.819h17.2zm1.11 12.492l-6.37-5.795 6.37-5.794v11.589z"/></svg>