<svg xmlns="http://www.w3.org/2000/svg" width="40" height="40" viewBox="0 0 40 40">
  <path fill="#000000" fill-rule="evenodd" d="M8.89056302,0.191319114 C2.08614841,0.191319114 2.7146941,5.87781602 2.7146941,5.87781602 L0.655769224,5.87781602 L0.655769224,11.7400159 L2.71348651,11.7400159 L2.71348651,22.8216809 L9.30808401,22.8216809 L9.30808401,11.7400159 L12.1335206,11.7400159 L12.1335206,6.47103997 L13.2502308,1.20327163 C11.0886616,0.295171043 8.89056302,0.191319114 8.89056302,0.191319114 Z M10.9485822,4.44743683 C10.9485822,4.44743683 8.71486005,4.05467125 8.19137387,4.68683968 C7.42244695,5.07235978 7.6675858,7.55242837 7.6675858,7.55242837 L10.4601159,7.55242837 L10.4601159,10.064196 L7.66879338,10.064196 L7.66879338,21.1953718 L4.3551923,21.1953718 L4.3551923,10.0654035 L2.29596553,10.0654035 L2.29596553,7.55242837 L4.38930645,7.55242837 C4.19820683,7.55242837 4.49315838,5.09349244 4.51549862,4.86133507 C4.63353962,3.62779152 5.54375348,2.5415728 6.71359715,2.13703331 C8.31635846,1.58516899 9.7808518,1.88947929 11.3670089,2.28345245 C11.2278352,3.00498184 11.087454,3.72922829 10.9485822,4.44743683 Z" transform="translate(13 8)"/>
</svg>
