<svg xmlns="http://www.w3.org/2000/svg" width="40" height="40" viewBox="0 0 40 40"><path fill-rule="evenodd" stroke="#000" stroke-width=".6" d="M29.609 12H10.316C9.59 12 9 12.678 9 13.515v13.13c0 .837.59 1.515 1.316 1.515H29.61c.726 0 1.316-.678 1.316-1.515v-13.13c0-.837-.59-1.515-1.316-1.515zm.438 14.768c0 .285-.196.514-.438.514H10.316c-.242 0-.438-.23-.438-.514V13.392c0-.285.196-.514.438-.514H29.61c.242 0 .438.23.438.514v13.376zM27.465 15.89l-4.824 3.731 4.824 3.736a.439.439 0 1 1-.534.693l-5.018-3.872-1.683 1.316a.438.438 0 0 1-.535 0l-1.435-1.127L13 24.225a.44.44 0 0 1-.518-.71l5.068-3.71-5.09-3.916a.438.438 0 1 1 .535-.692l6.968 5.38 6.968-5.38a.438.438 0 1 1 .535.692z"/></svg>