<svg width="129" height="129" viewBox="0 0 129 129" xmlns="http://www.w3.org/2000/svg"><title>Mandala_52 2</title><path d="M59.827 128.927c-.534-.062-2.156-.247-3.604-.41-15.779-1.777-31.932-10.874-42.184-23.755C-1.397 85.366-4.373 58.557 6.45 36.398c3.34-6.837 7.069-12.056 12.48-17.464C26.23 11.636 34.472 6.535 44.162 3.32 60.34-2.05 77.735-.875 92.983 6.614c19.186 9.424 32.204 27.305 35.502 48.765.689 4.484.686 14.165-.006 18.566-4.47 28.452-26.403 50.311-54.652 54.472-2.695.397-12.047.737-14 .51zm10.893-1.234c12.23-1.213 23.88-5.99 33.577-13.772 5.03-4.036 10.056-9.607 13.735-15.226 1.817-2.775 4.946-9.058 6.103-12.256 5.955-16.456 4.992-34.708-2.639-50.023-3.502-7.03-7.254-12.163-12.934-17.698C99.21 9.602 88.14 4.049 74.447 1.606 71.47 1.075 70.028.988 64.312 1c-5.613.013-7.189.11-9.996.623-13.72 2.504-24.472 7.919-33.98 17.114C10.121 28.617 3.724 41.033 1.52 55.259.833 59.688.826 69.45 1.506 73.711c2.168 13.582 8.026 25.357 17.386 34.947 5.296 5.425 10.397 9.192 16.94 12.506a63.512 63.512 0 0 0 34.888 6.529zm-12.327-2.978c-5.818-.562-12.446-2.311-18.108-4.78-19.26-8.396-32.693-26.008-35.79-46.927-.66-4.455-.66-13.172.001-17.378 3.126-19.894 15.288-36.615 33.018-45.396 5.846-2.896 11.56-4.7 18.158-5.732 4.284-.67 13.254-.67 17.582 0 27.791 4.304 48.717 26.406 51.467 54.359 1.455 14.791-2.816 29.912-11.829 41.878-12.79 16.982-33.333 26.02-54.499 23.976zm15.89-1.42c29.815-5.217 50.743-30.963 49.678-61.113-.97-27.436-20.923-50.739-48.015-56.073-14.274-2.811-29.388-.224-41.778 7.153-4.226 2.515-7.378 4.951-11.128 8.6C14.754 29.923 9.428 39.102 6.65 50.11c-1.262 5.003-1.66 8.576-1.65 14.844.008 6.576.532 10.438 2.2 16.207 6.31 21.823 24.925 38.386 47.296 42.08 4.847.8 5.047.814 11.054.72 3.935-.06 6.31-.242 8.732-.665zm-12.828-1.666c-4.477-.965-8.667-4.05-10.729-7.902l-.693-1.294-.322 1.267c-1.038 4.087-6.852 4.874-9.006 1.22-.774-1.315-.773-3.727.002-5.03l.591-.992-1.289.418c-2.103.68-6.97.608-9.373-.14-7.058-2.2-11.913-9.204-11.408-16.458.084-1.212.33-2.778.547-3.48l.393-1.277-1 .584c-1.343.785-3.706.796-5.042.023-2.712-1.57-3.218-5.518-.99-7.726.497-.492 1.267-.975 1.712-1.072.444-.097.978-.23 1.186-.295.212-.066-.54-.711-1.704-1.465-10.148-6.564-9.67-21.513.882-27.63l1.224-.71-1.118-.298c-1.337-.357-2.453-1.178-2.965-2.18-1.304-2.555-.46-5.643 1.869-6.84 1.339-.687 3.72-.625 4.952.13l1.017.623-.433-1.315c-.275-.835-.443-2.421-.461-4.344-.024-2.518.086-3.375.65-5.08 2.32-7.02 9.24-11.705 16.55-11.206 1.223.083 2.803.327 3.512.542l1.29.39-.57-.957c-.787-1.32-.808-3.734-.045-5.028 1.582-2.685 5.405-3.185 7.731-1.01.531.495 1.047 1.266 1.147 1.713.1.446.233.976.297 1.178.063.202.754-.58 1.535-1.736 5.479-8.117 16.575-9.67 24.194-3.387.957.789 2.248 2.253 3.02 3.425l1.348 2.046.294-1.079c.61-2.25 2.231-3.427 4.762-3.463 2.877-.04 4.767 1.844 4.81 4.795.015 1.083-.149 1.803-.57 2.51l-.59.993 1.288-.39c.71-.215 2.29-.459 3.512-.542 7.322-.5 14.39 4.31 16.609 11.304.755 2.381.83 7.204.142 9.288l-.422 1.277.965-.564c1.498-.876 3.842-.811 5.302.146 3.496 2.293 2.611 7.748-1.42 8.754l-1.28.32 1.307.686c3.286 1.728 6.447 5.54 7.573 9.134 1.818 5.8.326 12.071-3.868 16.263-1.014 1.013-2.522 2.224-3.351 2.692l-1.507.851 1.013.277c2.085.571 3.255 1.846 3.643 3.97.746 4.084-3.793 7.047-7.51 4.903l-.867-.5.394 1.277c.216.702.462 2.268.547 3.48.668 9.614-7.567 17.774-17.27 17.112-1.222-.084-2.803-.327-3.512-.542l-1.289-.39.57.956c.786 1.32.807 3.735.045 5.03-1.128 1.911-3.435 2.8-5.7 2.197-1.4-.374-2.927-1.77-3.18-2.911-.36-1.614-.428-1.619-1.298-.1-.474.826-1.687 2.307-2.697 3.292-3.919 3.822-9.548 5.43-14.946 4.267zm5.431-.886c5.637-1.018 10.795-6.153 11.817-11.765.417-2.287.39-5.132-.047-4.972-.188.07-1.151.392-2.142.717l-1.8.592-.165 1.943c-.314 3.734-2.552 6.929-6.057 8.647-1.745.855-2.078.924-4.486.924-2.374 0-2.754-.076-4.366-.867-1.94-.951-3.788-2.61-4.778-4.289-.752-1.277-1.485-3.903-1.485-5.324v-1.004l-2.058-.689c-2.467-.825-2.45-.842-2.223 2.368.282 3.981 1.903 7.339 4.859 10.063 3.461 3.19 8.155 4.518 12.931 3.656zm-20.74-4.955c1.369-.34 2.327-1.183 2.696-2.372.846-2.722-1.838-5.015-5.006-4.276-3.714.867-3.805 5.679-.126 6.635 1.146.297 1.289.298 2.436.013zm-2.88-1.194c-1.126-.596-1.604-2.143-1.008-3.265 1.03-1.937 3.9-1.708 4.604.368.415 1.226-.13 2.467-1.317 2.993-.98.435-1.3.421-2.278-.096zM45.4 113.4c.33-.33.6-.735.6-.9 0-.165-.27-.57-.6-.9-.33-.33-.735-.6-.9-.6-.165 0-.57.27-.9.6-.33.33-.6.735-.6.9 0 .165.27.57.6.9.33.33.735.6.9.6.165 0 .57-.27.9-.6zm40.746 2.388c1.369-.34 2.327-1.183 2.696-2.372.846-2.722-1.838-5.015-5.006-4.276-3.714.867-3.805 5.679-.126 6.635 1.146.297 1.289.298 2.436.013zm-2.88-1.194c-1.126-.596-1.604-2.143-1.008-3.265 1.03-1.937 3.9-1.708 4.604.368.415 1.226-.13 2.467-1.317 2.993-.98.435-1.3.421-2.278-.096zM85.4 113.4c.33-.33.6-.735.6-.9 0-.165-.27-.57-.6-.9-.33-.33-.735-.6-.9-.6-.165 0-.57.27-.9.6-.33.33-.6.735-.6.9 0 .165.27.57.6.9.33.33.735.6.9.6.165 0 .57-.27.9-.6zm-16.732 1.626c2.993-1.442 4.957-4.253 5.26-7.53.136-1.463.105-1.604-.321-1.444-.26.097-1.133.253-1.94.346-1.358.156-1.47.222-1.476.862-.01 1.09-.902 2.743-1.982 3.671-1.884 1.619-4.79 1.792-6.803.406-1.427-.982-1.997-1.797-2.388-3.42l-.329-1.363-1.412-.163c-.777-.09-1.624-.242-1.884-.34-.426-.16-.457-.018-.321 1.445.607 6.56 7.586 10.425 13.596 7.53zm-2.173-3.622c1.18-.662 2.095-2.032 2.353-3.523L69 107h-4.5c-3.292 0-4.5.097-4.5.362 0 .747.585 2.11 1.269 2.956 1.43 1.771 3.308 2.161 5.226 1.086zm-17.501-4.395L48.979 104l-1.66 1.637c-.913.9-2.033 1.89-2.49 2.201l-.829.565 1.363.037a4.55 4.55 0 0 1 2.49.79c.619.414 1.133.76 1.14.77.009.01.009-1.336 0-2.991zm35.328.507l1.678-.348-1.159-.67c-.638-.367-1.756-1.305-2.486-2.083L81.03 103l-.015 3-.014 3 .822-.568c.452-.312 1.577-.724 2.5-.916zm-45.891 1.207c2.599-.46 5.535-1.976 7.685-3.966L48 103.013l-2.114-1.022-2.115-1.023-1.06.977c-.582.537-1.912 1.387-2.955 1.888-1.745.84-2.112.912-4.59.912-2.458 0-2.852-.076-4.524-.88-6.877-3.309-8.578-11.897-3.385-17.093l1.053-1.054-1.017-1.857c-.559-1.02-1.161-1.858-1.338-1.861-.595-.009-3.418 3.254-4.288 4.954-3.904 7.634-.715 16.868 7.089 20.527 3.104 1.455 6.215 1.855 9.675 1.242zm59.06.002c2.808-.51 5.627-2.052 7.89-4.318 6.056-6.063 6.17-15.287.265-21.526L103.866 81l-1.064 2.153-1.064 2.153.895.896c1.29 1.292 2.21 2.995 2.744 5.081 1.277 4.99-1.147 10.053-5.946 12.418-1.802.889-2.146.96-4.633.96-2.454 0-2.842-.078-4.509-.903-1.003-.496-2.307-1.375-2.899-1.953l-1.075-1.052-2.158 1.069L82 102.891l1.879 1.781c3.75 3.558 8.519 4.977 13.612 4.053zm-29.126-3.867c.35-.096.635-.315.635-.486 0-.71-1.348-2.28-2.417-2.818-2.09-1.05-4.097-.6-5.7 1.277-1.022 1.198-1.15 1.813-.419 2.01.753.202 7.18.216 7.901.017zm5.183-.38c.677-.204.622-.58-.362-2.457-1.01-1.93-2.563-3.346-4.73-4.315-1.316-.59-1.972-.706-3.964-.706-2 0-2.646.116-3.987.715-1.998.894-3.984 2.762-4.874 4.585-1.04 2.134-.996 2.2 1.685 2.501 1.432.16 1.488.142 1.67-.552.444-1.685 3.424-3.633 5.558-3.633 2.162 0 4.557 1.597 5.448 3.631.373.851.385.856 1.72.619.74-.132 1.565-.306 1.836-.388zm-19.426-1.16c1.255-5.172 7.526-8.735 12.884-7.321 3.49.92 6.35 3.516 7.432 6.74.499 1.487.415 1.474 3.288.51 1.655-.557 1.668-.778.211-3.808-1.15-2.395-4.026-5.41-6.306-6.612C69.8 91.862 66.387 91 64.395 91c-2 0-5.412.864-7.232 1.832-2.153 1.144-5.157 4.225-6.218 6.378-.491.997-.913 2.222-.936 2.722-.043.886.003.925 1.743 1.512 2.247.759 2.154.764 2.37-.126zm-15.375-1.324c.956-.467 2.08-1.2 2.496-1.632L42 99.58l-1.599-1.117-1.599-1.118-.75.64c-2.862 2.44-7.765.94-8.933-2.73-.588-1.85-.353-3.588.677-4.996l.761-1.04-1.12-1.609L28.317 86l-.934 1.052c-.514.578-1.26 1.73-1.659 2.558C25.12 90.87 25 91.5 25 93.445c0 1.936.121 2.585.719 3.848 2.393 5.055 8.088 7.11 13.028 4.7zm59.962-.006c2.077-1.017 3.546-2.524 4.563-4.68.608-1.291.728-1.932.728-3.889 0-2.079-.1-2.543-.883-4.127-.486-.98-1.24-2.123-1.675-2.538l-.791-.754-1.1 1.586-1.1 1.586.775 1.097c3.56 5.038-2.86 11.417-7.939 7.888l-1.101-.765-1.593 1.093L87 99.578l.621.662c.799.85 2.672 1.944 4.156 2.426 1.94.63 4.839.347 6.932-.678zm-50.088-1.694c2.636-5.815 1.436-12.28-3.114-16.778-1.07-1.058-2.582-2.262-3.362-2.677C40.32 79.867 36.92 79 34.935 79c-2.769 0-7.955 1.66-7.935 2.54.013.574 1.781 3.628 2.058 3.555a75.03 75.03 0 0 0 2.18-.746c3.899-1.377 7.874-.487 10.878 2.436 3.087 3.005 4.044 8.001 2.272 11.872-.383.837-.664 1.55-.624 1.584.316.273 3.436 1.749 3.718 1.759.198.007.71-.76 1.14-1.706zm34.796.852c.939-.47 1.733-.876 1.766-.903.032-.027-.246-.803-.62-1.725-2.45-6.053.524-12.424 6.685-14.322 2.714-.837 5.502-.603 7.965.668.504.26.953.434.996.385.237-.265 1.791-3.538 1.791-3.771 0-.829-5.297-2.478-7.958-2.478-1.996 0-5.404.87-7.22 1.842-2.08 1.113-5.14 4.25-6.164 6.315-1.222 2.469-1.82 5.414-1.62 7.973.216 2.753 1.652 6.87 2.396 6.87.152 0 1.044-.384 1.983-.854zM45 94.67c0-2.121-.099-2.58-.914-4.227-1.064-2.152-2.584-3.628-4.8-4.663-2.17-1.013-5.628-1.043-7.814-.067-.81.36-1.472.715-1.472.786 0 .07.473.808 1.051 1.639.71 1.019 1.189 1.459 1.472 1.353 1.772-.662 2.863-.778 4.136-.44 1.724.456 2.42.926 3.426 2.308 1.254 1.724 1.414 3.905.45 6.146-.149.346.198.702 1.433 1.475l1.63 1.02.701-1.476c.577-1.214.701-1.896.701-3.854zm41.916 4.422l1.524-1.068c.125-.088.027-.717-.219-1.398-1.17-3.243.694-6.646 4.145-7.57 1.265-.338 2.352-.221 4.118.441.283.106.76-.334 1.468-1.354C98.528 87.31 99 86.573 99 86.5c0-.07-.66-.425-1.468-.787-2.19-.981-5.625-.947-7.811.078-2.032.952-3.977 2.897-4.93 4.929-1.024 2.186-1.058 5.622-.077 7.811.362.808.714 1.468.783 1.468.068 0 .707-.409 1.42-.908zm-50.142-.482c1.848-.785 1.885-.7-1.84-4.252L31.414 91l-.568.688c-1.26 1.527-1.095 3.959.375 5.556 1.556 1.69 3.605 2.193 5.553 1.366zm59.678-1.163c2.154-.999 3.126-3.347 2.195-5.3-.757-1.587-1.042-1.559-2.87.282-.918.926-2.433 2.25-3.364 2.944-1.848 1.375-1.867 1.65-.153 2.305 1.305.498 2.795.416 4.192-.231zM39.799 95.23c.432-1.11.143-3.001-.631-4.137-.764-1.12-2.549-2.093-3.842-2.093-1.099 0-2.326.448-2.326.85 0 .395 5.796 6.15 6.194 6.15.168 0 .44-.347.605-.77zm16.047-2.508c.829-.475 2.102-1.09 2.83-1.367L60 90.852l-1.724-.942c-.948-.518-2.102-1.307-2.564-1.753-.648-.626-1.202-.851-2.43-.99-1.402-.158-2.634-.5-4.088-1.136-.334-.146-.249.208.347 1.442 1.02 2.112 1.682 5.378 1.56 7.695L51.004 97l1.668-1.706c.918-.939 2.346-2.096 3.174-2.572zm22.057 2.425c-.126-2.347.496-5.413 1.546-7.623.603-1.27.692-1.638.36-1.495-1.454.628-2.692.968-4.098 1.125-1.23.137-1.786.36-2.437.98-.463.442-1.614 1.22-2.558 1.73L69 90.788l1.804.749c2.506 1.04 3.886 1.974 5.658 3.832A82.894 82.894 0 0 1 77.995 97c.005.017-.037-.816-.092-1.853zm16.235-2.113c1.635-1.631 2.922-3.122 2.86-3.313-.167-.508-1.947-.878-3.145-.654-1.967.368-3.853 2.643-3.853 4.65 0 1.062.459 2.283.858 2.283.168 0 1.644-1.335 3.28-2.966zm-25.714-4.689c.827-.308 1.97-.95 2.54-1.427L72 86.05l-1.047-.19c-1.52-.277-4.034-1.58-5.4-2.8L64.367 82l-1.186 1.06c-1.351 1.207-3.876 2.522-5.357 2.792-.981.178-.993.194-.521.699 2.154 2.306 7.447 3.16 11.12 1.794zm-50.278-.557c1.369-.34 2.327-1.183 2.696-2.372.846-2.722-1.838-5.015-5.006-4.276-3.714.867-3.805 5.679-.126 6.635 1.146.297 1.289.298 2.436.013zm-2.88-1.194c-1.126-.596-1.604-2.143-1.008-3.265 1.03-1.937 3.9-1.708 4.604.368.415 1.226-.13 2.467-1.317 2.993-.98.435-1.3.421-2.278-.096zM17.4 85.4c.33-.33.6-.735.6-.9 0-.39-1.11-1.5-1.5-1.5-.39 0-1.5 1.11-1.5 1.5 0 .165.27.57.6.9.33.33.735.6.9.6.165 0 .57-.27.9-.6zm96.746 2.388c1.369-.34 2.327-1.183 2.696-2.372.846-2.722-1.838-5.015-5.006-4.276-3.714.867-3.805 5.679-.126 6.635 1.146.297 1.289.298 2.436.013zm-1.88-1.194c-1.126-.596-1.604-2.143-1.008-3.265 1.03-1.937 3.9-1.708 4.604.368.415 1.226-.13 2.467-1.317 2.993-.98.435-1.3.421-2.278-.096zM114.4 85.4c.33-.33.6-.735.6-.9 0-.165-.27-.57-.6-.9-.33-.33-.735-.6-.9-.6-.165 0-.57.27-.9.6-.33.33-.6.735-.6.9 0 .165.27.57.6.9.33.33.735.6.9.6.165 0 .57-.27.9-.6zm-60.934-2.02c-.814-1.743-1.306-3.816-1.306-5.5v-1.018h-1.17c-1.75 0-3.775-.501-5.468-1.353-1.788-.9-1.836-.807-.99 1.94 1.07 3.467 3.909 6.223 7.372 7.155 2.436.656 2.44.653 1.562-1.225zm4.368 2.048c1.723-.571 4.092-2.227 4.849-3.388.369-.566.344-.756-.307-2.313-1.484-3.553-1.487-7.5-.008-10.794.752-1.674.796-1.933.327-1.933-.183 0-.551.67-.817 1.489-.648 1.994-1.799 3.895-3.196 5.28-1.166 1.154-3.63 2.636-4.956 2.98-.69.178-.726.27-.726 1.853C53 81.441 54.697 86 55.753 86c.197 0 1.134-.257 2.08-.572zm16.63-.78C75.352 83.084 76 80.484 76 78.476c0-1.401-.048-1.513-.726-1.689-1.384-.36-3.833-1.866-5.078-3.122-1.25-1.262-2.56-3.585-3.156-5.596-.174-.588-.485-1.068-.692-1.068-.522 0-.472.38.252 1.931 1.605 3.44 1.604 7.412-.004 11.079-.741 1.69-.72 1.774.828 3.283 1.392 1.355 4.728 2.871 5.927 2.693.212-.032.713-.634 1.112-1.337zm3.193.784c4.256-1.281 7.324-4.805 8.148-9.357L86 75l-1.694.83c-1.89.925-4.103 1.46-6.033 1.46h-1.284l-.007 1.475c-.01 1.995-.44 3.687-1.427 5.618-.975 1.906-.89 1.948 2.102 1.049zm30.783-.104c-.222-.869.3-2.757 1.007-3.638L110 81l-3 .013-3 .014 1.404 1.206c.771.663 1.774 1.782 2.228 2.486.453.704.86 1.28.902 1.281.043 0 .001-.302-.094-.672zm-83.962-2.742L26 81.028l-3-.014L20 81l.654 1.016c.36.558.749 1.683.865 2.5L21.73 86l.613-.928c.338-.51 1.298-1.63 2.135-2.486zm19.059-3.95c-.288-.736-.613-2.07-.722-2.965-.155-1.264-.379-1.81-1.004-2.453-.444-.454-1.226-1.59-1.738-2.522L39.14 69l-.608 1.622c-.789 2.103-2.507 4.587-4.192 6.06L33 77.852l1.842-.096c2.304-.121 5.243.467 7.42 1.486.919.43 1.7.771 1.734.758.035-.014-.172-.628-.46-1.364zm21.805-.174c.875-2.214.878-6.002.005-8.173-.727-1.808-.995-1.749-1.799.399-.772 2.062-.722 5.701.108 7.774.338.846.719 1.538.846 1.538s.505-.692.84-1.538zm24.986-.408c1.123-.23 2.847-.369 3.852-.311l1.82.103-1.687-1.648c-1.81-1.768-2.74-3.154-3.782-5.635L89.874 69l-.652 1.328c-.359.731-1.134 1.862-1.723 2.513-.912 1.009-1.096 1.43-1.246 2.85-.097.916-.419 2.26-.715 2.987L85 80l1.648-.766c.906-.42 2.562-.952 3.68-1.18zm-65.346.823c.082-.082-.131-1.033-.474-2.115l-.624-1.965-2.009-.203c-6.253-.63-10.792-6.582-9.56-12.536 1.015-4.9 4.746-8.14 9.97-8.657l1.6-.159.623-1.966c.343-1.08.556-2.032.474-2.114-.342-.342-3.674-.11-5.638.39-2.902.741-4.602 1.721-6.878 3.963-6.13 6.04-5.924 15.64.463 21.541 1.798 1.662 4.816 3.25 6.938 3.65 1.527.289 4.885.4 5.115.17zm83.89-.167c2.72-.494 5.451-1.986 7.643-4.178 5.98-5.98 5.98-15.115 0-21.025-2.26-2.235-3.954-3.21-6.866-3.955-1.959-.5-5.282-.731-5.623-.39-.082.081.13 1.032.473 2.113l.622 1.964 1.594.166c2.237.233 3.59.652 5.006 1.551 2.561 1.626 4.035 3.659 4.79 6.605 1.59 6.204-2.913 12.453-9.364 12.993l-1.95.164-.668 1.986c-.367 1.092-.597 2.057-.511 2.142.258.258 3.124.177 4.855-.136zm-79.362-.813c2.82-1.33 5.57-4.081 6.923-6.927 2.86-6.018 1.757-12.502-2.924-17.184-2.074-2.074-4.86-3.699-6.476-3.778-.858-.042-.903.012-1.532 1.863-.665 1.958-.594 2.331.448 2.348.657.011 3.06 1.5 4.168 2.584 4.775 4.671 4.01 12.79-1.545 16.41-.892.582-2.092 1.2-2.665 1.371-1.174.353-1.18.442-.184 3.154.607 1.655.615 1.655 3.787.16zm73.95-1.104c.302-.96.515-1.766.476-1.791-.04-.026-.65-.261-1.358-.523-3.78-1.402-6.492-4.983-6.927-9.147-.478-4.583 2.607-9.326 7.02-10.793.73-.244 1.329-.516 1.329-.606 0-.09-.273-1.011-.607-2.048L102.787 50l-.953.155c-3.045.494-7.584 4.177-9.211 7.473-4.079 8.26-.176 18.006 8.423 21.037 1.681.593 1.629.634 2.414-1.872zm-50.738-1.566c.907-3.945 4.28-7.596 8.266-8.948.556-.19 1.012-.527 1.012-.752 0-.572-.363-.513-1.888.308-3.039 1.636-7.18 1.614-10.384-.055L48.232 65l-1.184 1.234c-.65.678-1.497 1.914-1.88 2.746-.76 1.647-1.357 4.049-1.112 4.47.309.531 2.47 1.695 3.912 2.106.813.232 2.175.43 3.026.441 1.47.018 1.556-.02 1.728-.77zm29.349-.748C84.062 73.904 86 72.803 86 72.247c0-1.04-1.278-3.96-2.29-5.23-1.663-2.09-2.112-2.252-3.896-1.411-3.196 1.507-7.665 1.517-10.831.024-1.613-.76-1.983-.81-1.983-.268 0 .215.35.468.78.562 1.585.347 4.622 2.041 5.85 3.263 1.258 1.252 2.759 3.7 3.118 5.087.179.69.271.726 1.854.726.917 0 2.478-.234 3.469-.52zm-25.32-.307c2.256-1.156 4.673-3.732 5.17-5.508.233-.839.036-.86-1.733-.192-1.816.685-4.484 2.984-5.422 4.67-.421.759-.766 1.512-.766 1.676 0 .407 1.284.106 2.751-.646zm19.182.057c-.68-2.75-4.411-6.443-7.199-7.125-.805-.198-.828-.175-.63.626.549 2.213 3.301 5.352 5.763 6.572 1.917.95 2.316.935 2.066-.073zm-32.288-5.781c.35-.662 1.247-1.833 1.995-2.603l1.36-1.4-1.192-1.164c-1.358-1.327-2.298-2.856-3.002-4.88L42.32 57l-.624.602c-.922.89-2.088 3.124-2.472 4.738-.681 2.858.235 6.524 2.154 8.618L42.332 72l.34-1.175c.186-.646.624-1.716.973-2.377zm45.683.802c.511-1.221.663-2.183.672-4.254.013-3.099-.664-5.107-2.33-6.914L86.672 57l-.175 1.01c-.276 1.596-1.632 4.01-3.125 5.567L82 65.007l1.218 1.238c1.404 1.427 2.908 4.065 3.227 5.657l.22 1.098 1.001-1.086c.551-.597 1.299-1.796 1.662-2.664zm-29.97-3.957c.903-.323 1.642-.69 1.642-.816 0-.125-.74-.496-1.643-.824-2.39-.867-6.136-.871-8.571-.01-.982.348-1.786.728-1.786.845 0 .227 1.942.975 3.485 1.34 1.588.377 5.083.105 6.872-.535zm19 0c.903-.323 1.642-.69 1.642-.816 0-.125-.74-.496-1.643-.824-2.39-.867-6.136-.871-8.571-.01-.982.348-1.786.728-1.786.845 0 .227 1.942.975 3.485 1.34 1.588.377 5.083.105 6.872-.535zm-12.89.227c.692-.626.709-1.262.052-1.987-.626-.693-1.262-.71-1.987-.053-.693.626-.71 1.262-.053 1.987.626.693 1.262.71 1.987.053zm-14.406-2.479c3.211-1.375 7.009-1.263 10.016.296 1.554.805 1.922.856 1.922.267 0-.235-.349-.514-.776-.619-1.479-.364-4.096-1.89-5.426-3.163-1.345-1.286-2.737-3.633-3.385-5.705L53.063 53l-2.152.143c-2.319.155-4.778.988-6.103 2.07L44 55.87l.504 1.906c.55 2.077 1.544 3.844 3.001 5.336 1.016 1.04.96 1.04 3.557-.072zm18.564-.891c3.113-1.27 6.75-1.16 9.695.295 1.626.803 2.065.647 3.556-1.258 1.146-1.464 1.976-3.394 2.1-4.885.08-.95.006-1.062-1.137-1.752-1.473-.889-3.96-1.55-5.833-1.55h-1.373l-.498 1.39c-.666 1.861-1.85 3.635-3.289 4.927-1.2 1.078-3.735 2.46-5.1 2.781-.428.101-.747.356-.747.599 0 .486.192.446 2.626-.547zm-5.665-1.623c-.086-.26-.484-1.205-.885-2.1-1.39-3.102-1.277-6.62.312-9.76.653-1.29.677-1.463.279-1.995-.729-.974-3.28-2.616-4.738-3.05-2.952-.877-3.145-.864-3.904.278-1.159 1.742-1.708 3.37-1.87 5.54L53 51.52l.834.184c1.651.365 4.733 2.086 5.996 3.35 1.28 1.28 2.808 3.785 3.173 5.204.11.426.389.743.653.743.306 0 .409-.159.305-.473zm2.214.69c.96-3.913 4.532-7.535 8.753-8.877L76 51.999v-1.655c0-1.988-.849-4.864-1.879-6.364-.691-1.007-.829-1.079-1.74-.909-2.155.403-4.228 1.434-5.79 2.881L65 47.426l.782 1.668c1.783 3.804 1.802 7.386.059 11.052C65.017 61.88 64.999 62 65.56 62c.233 0 .51-.352.615-.782zm-4.242.012c-.68-2.75-4.411-6.443-7.199-7.125-.805-.198-.828-.175-.63.626.549 2.213 3.301 5.352 5.763 6.572 1.917.95 2.316.935 2.066-.073zm8.818-1.057c2.256-1.156 4.673-3.732 5.17-5.508.233-.839.036-.86-1.733-.192-1.816.685-4.484 2.984-5.422 4.67-.421.759-.766 1.512-.766 1.676 0 .407 1.284.106 2.751-.646zm-5.41-1.71c.876-2.214.879-6.002.006-8.173-.727-1.808-.995-1.749-1.799.399-.772 2.062-.722 5.701.108 7.774.338.846.719 1.538.846 1.538s.505-.692.84-1.538zM41.585 56.08c.87-1.018 1.103-1.542 1.255-2.828.165-1.394.508-2.628 1.13-4.06.145-.332-.204-.247-1.422.345-2.112 1.026-5.305 1.67-7.665 1.544l-1.882-.1 1.3 1.094c1.567 1.318 3.77 4.554 4.429 6.506L39.207 60l.655-1.335c.36-.734 1.135-1.897 1.722-2.584zm48.933 2.101c.868-2.15 2.834-4.962 4.352-6.226L96 51.014l-1.889.102c-2.366.128-5.548-.523-7.661-1.57-1.215-.601-1.563-.687-1.42-.35.623 1.461.964 2.711 1.125 4.128.146 1.285.37 1.814 1.12 2.657.516.58 1.272 1.734 1.679 2.566.407.832.766 1.486.797 1.452.032-.034.376-.852.766-1.817zm-42.118-5.813c.891-.234 2.23-.426 2.975-.426h1.355v-1.274c0-1.901.534-4.101 1.452-5.987L55 43l-1.107.179c-4.594.743-8.591 4.511-9.633 9.082-.46 2.018-.433 2.048 1.11 1.257.775-.397 2.138-.914 3.03-1.149zm37.102-.923c-1.292-4.346-4.8-7.419-9.422-8.252L75 43l.833 1.693c.929 1.89 1.467 4.101 1.467 6.03v1.283l1.339.004c1.81.006 4.145.607 5.85 1.505 1.733.912 1.835.702 1.012-2.07zm-47.665-1.7c7.958-1.444 13.551-9.868 11.862-17.864-.377-1.785-1.74-4.882-2.15-4.882-.325 0-2.964 1.282-3.466 1.684-.222.178-.11.725.4 1.956.58 1.397.711 2.16.72 4.184.01 2.254-.07 2.637-.89 4.305-1.174 2.39-2.796 4.024-5.136 5.178-1.755.866-2.086.934-4.502.932-2.246-.003-2.824-.104-4.167-.733-1.157-.54-1.626-.646-1.816-.408-.408.51-1.691 3.152-1.691 3.483 0 .412 3.197 1.831 4.83 2.144 1.872.359 4.105.367 6.006.022zm59.1-.026c1.851-.342 5.064-1.71 5.064-2.158 0-.239-1.53-3.5-1.774-3.78-.034-.04-.791.266-1.682.681-1.408.657-1.959.755-4.23.758-2.387.003-2.766-.073-4.393-.873-5.45-2.68-7.814-9.222-5.19-14.36.402-.786.443-1.077.184-1.284C84.4 28.289 81.755 27 81.422 27c-.456 0-1.582 2.65-2.086 4.908-1.471 6.588 2.003 13.61 8.203 16.582 3.02 1.449 6.06 1.846 9.398 1.23zm-78.79-1.932c1.369-.34 2.327-1.183 2.696-2.372.846-2.722-1.838-5.015-5.006-4.276-3.714.867-3.805 5.679-.126 6.635 1.146.297 1.289.298 2.436.013zm-2.88-1.194c-1.126-.596-1.604-2.143-1.008-3.265 1.03-1.937 3.9-1.708 4.604.368.415 1.226-.13 2.467-1.317 2.993-.98.435-1.3.421-2.278-.096zM17.4 45.4c.33-.33.6-.735.6-.9 0-.39-1.11-1.5-1.5-1.5-.39 0-1.5 1.11-1.5 1.5 0 .165.27.57.6.9.33.33.735.6.9.6.165 0 .57-.27.9-.6zm7.09 1.33c-.83-.686-1.882-1.64-2.336-2.12-.455-.481-.736-.73-.624-.553.33.52-.142 2.228-.862 3.117L20 48l3-.011 3-.012-1.51-1.247zm84.862.435c-.356-.46-.737-1.36-.847-2l-.2-1.165-1.123 1.244c-.619.685-1.587 1.58-2.153 1.989l-1.029.744 3 .011 3 .012-.648-.835zm4.794.623c1.369-.34 2.327-1.183 2.696-2.372.846-2.722-1.838-5.015-5.006-4.276-3.714.867-3.805 5.679-.126 6.635 1.146.297 1.289.298 2.436.013zm-1.88-1.194c-1.126-.596-1.604-2.143-1.008-3.265 1.03-1.937 3.9-1.708 4.604.368.415 1.226-.13 2.467-1.317 2.993-.98.435-1.3.421-2.278-.096zM114.4 45.4c.33-.33.6-.735.6-.9 0-.165-.27-.57-.6-.9-.33-.33-.735-.6-.9-.6-.165 0-.57.27-.9.6-.33.33-.6.735-.6.9 0 .165.27.57.6.9.33.33.735.6.9.6.165 0 .57-.27.9-.6zm-87.284.7c.555-1.045 1.004-2.031 1-2.192-.006-.16-.457-.737-1.004-1.282-1.316-1.311-2.349-3.486-2.74-5.77-.9-5.257 2.383-10.425 7.657-12.055 3.83-1.184 7.724-.265 10.74 2.533.514.477 1.05.868 1.19.868.141 0 1.108-.468 2.149-1.04L48 26.12l-1.819-1.716c-1-.945-2.474-2.07-3.275-2.501C41.041 20.899 37.531 20 35.473 20c-2.056 0-5.566.898-7.438 1.903-2.141 1.15-5.294 4.39-6.347 6.523-2.389 4.837-2.234 10.494.412 15.026.616 1.055 3.633 4.548 3.929 4.548.043 0 .533-.855 1.087-1.9zm81.294-3.915c2.921-6.12 1.764-12.827-3.032-17.568-2.337-2.31-4.087-3.318-7.097-4.088-2.757-.705-4.804-.705-7.561 0-2.825.722-4.604 1.711-6.877 3.823L82 26.065l2.093 1.166 2.094 1.167.563-.652c1.661-1.92 5.336-3.55 7.991-3.543 6.386.016 11.528 5.695 10.933 12.073-.199 2.131-1.078 4.155-2.682 6.171l-1.174 1.478 1.026 2.037L103.87 48l1.778-1.877c1.139-1.202 2.131-2.617 2.762-3.938zm-42.68 2.78c1.298-1.19 2.826-2.026 4.852-2.656L72 41.868l-1.02-.838c-3.342-2.74-9.748-2.7-12.986.084l-.994.855 1.049.193c1.46.27 4.368 1.838 5.43 2.927.488.501.94.911 1.005.911.064 0 .625-.466 1.246-1.035zm-26.126-1.99c2.1-1.03 3.586-2.558 4.615-4.745 1.014-2.157 1.045-5.595.068-7.768L43.629 29l-1.014.574c-.558.316-1.29.799-1.625 1.074-.574.47-.587.564-.222 1.585 1.708 4.778-2.745 9.202-7.546 7.498-.609-.217-1.125-.368-1.147-.337l-1.057 1.584L30 42.504l.767.404c2.725 1.432 6.007 1.457 8.837.068zm57.93.277L99 42.617l-.576-1.014c-.316-.557-.801-1.287-1.076-1.623-.471-.572-.567-.586-1.59-.221-2.158.768-4.138.388-5.92-1.136-1.94-1.658-2.485-4.498-1.364-7.11.126-.292-.275-.734-1.332-1.466C86.31 29.471 85.572 29 85.5 29c-.071 0-.425.66-.787 1.466-.973 2.168-.947 5.623.058 7.763 1.283 2.732 3.313 4.52 6.203 5.463 1.679.548 4.752.342 6.56-.44zm-44.288-.293c1.228-.138 1.781-.363 2.43-.986.462-.443 1.624-1.233 2.582-1.754L60 39.272l-1.408-.477c-1.952-.66-5.21-2.887-6.54-4.471L50.941 33l.119 1.68c.194 2.73-.41 5.44-2.049 9.204-.09.21.374.132 1.25-.207.768-.297 2.111-.62 2.985-.718zm25.135-.617c-1.047-2.233-1.65-5.193-1.526-7.502l.098-1.84-1.187 1.341c-1.452 1.642-4.046 3.406-6.174 4.2L68 39.135l1.715.931c.944.512 2.097 1.308 2.564 1.767.55.542 1.134.838 1.658.84 1.048.006 3.669.635 4.373 1.05.905.533.911.411.07-1.381zm-48.75-2.043c.978-1.412.987-1.448.464-1.926-.834-.761-1.472-3.162-1.246-4.685.358-2.405 2.563-4.498 5.102-4.842 1.268-.171 3.62.539 4.302 1.3.45.502.52.481 2.106-.624L42 28.379l-.758-.798c-.417-.44-1.565-1.2-2.552-1.69-1.591-.79-2.058-.891-4.148-.891-2.877 0-4.816.795-6.785 2.782C25.789 29.768 25 31.727 25 34.624c0 1.971.121 2.632.719 3.918.795 1.71 2.437 3.768 2.728 3.419.103-.123.635-.871 1.184-1.662zm73.489-1.615c.781-1.592.88-2.057.88-4.153 0-2.105-.097-2.557-.898-4.189-1.046-2.129-2.54-3.59-4.72-4.614-1.292-.608-1.935-.728-3.89-.728-1.959 0-2.592.119-3.86.724-.833.398-1.992 1.144-2.574 1.658L87 28.315l1.629 1.126 1.628 1.126.809-.625c.445-.344 1.397-.783 2.117-.976 3.301-.885 6.643 1.524 7.006 5.05.156 1.506-.296 3.005-1.332 4.426-.278.381-.155.718.73 2.008l1.066 1.55.793-.762c.436-.419 1.19-1.568 1.674-2.554zm-65.619.699c1.994-1.057 3.012-3.628 2.24-5.662-.15-.396-.404-.721-.564-.721-.38 0-6.177 5.81-6.177 6.193 0 .161.284.408.631.548 1.11.447 2.613.308 3.87-.358zm58.776.364c.398-.152.723-.404.723-.56 0-.5-5.881-6.31-6.26-6.185-.524.172-.9 1.94-.672 3.158.228 1.224 1.633 2.94 2.839 3.468 1.022.448 2.383.496 3.37.119zM37.954 31.02c-2.33-1.584-4.919-1.308-6.751.72-1.448 1.602-1.61 4.04-.371 5.57l.558.69 3.464-3.366c2.509-2.437 3.364-3.434 3.1-3.614zm30.114 6.73c3.812-.67 8.133-3.575 10.157-6.83 1.24-1.995 2.096-4.368 1.66-4.603-.455-.244-3.92-1.333-3.975-1.25-.024.038-.266.65-.538 1.36-2.224 5.81-9.321 8.626-14.9 5.912-.925-.45-2.02-1.11-2.43-1.464-1.313-1.135-2.692-3.089-3.177-4.503-.259-.754-.512-1.372-.562-1.372-.05 0-1.018.305-2.152.677-1.134.373-2.09.679-2.127.68-.243.007 1.412 3.748 2.153 4.865 2.003 3.023 6.25 5.87 9.699 6.502 1.96.359 4.237.368 6.192.025zm30.428-.977c1.93-3.748-2.02-7.936-6.106-6.475-2.08.744-2.053.817 1.65 4.378 1.878 1.806 3.502 3.302 3.61 3.323.106.022.487-.53.846-1.226zm-30.008-5.55c2.138-.914 3.7-2.305 4.714-4.199 1.257-2.346 1.216-2.42-1.49-2.716l-1.453-.16-.358.924c-.684 1.766-3.212 3.323-5.393 3.323-2.156 0-4.492-1.437-5.341-3.285l-.51-1.11-1.723.335c-.947.185-1.797.406-1.888.49-.28.261.765 2.493 1.71 3.655 1.073 1.32 3.134 2.661 4.908 3.192 1.914.573 4.889.377 6.824-.45zm-1.75-4.855c1.231-.664 2.612-2.568 2.182-3.009-.3-.306-6.122-.491-7.73-.245-1.497.229-1.558.622-.318 2.06 1.65 1.916 3.738 2.341 5.865 1.194zM47.987 23L48 20l-.87.662c-.478.364-1.378.748-2 .852l-1.13.19 1.536 1.434c.844.788 1.723 1.755 1.953 2.148.23.393.433.715.452.714.02 0 .04-1.35.047-3zm35.663-.076L85 21.694l-1.134-.19c-.623-.104-1.523-.485-2-.847L81 20l.012 3 .011 3 .64-.925c.352-.508 1.247-1.477 1.988-2.152zm-30.347.047c.115-1.595.663-3.89 1.166-4.881 2.28-4.49 7.446-6.896 12.126-5.645 4.55 1.217 7.421 4.72 7.988 9.748l.19 1.692 1.965.624c1.08.343 2.03.556 2.112.474.082-.082.149-.922.149-1.867 0-4.105-1.512-7.703-4.47-10.636-2.262-2.241-3.954-3.219-6.867-3.966-2.666-.684-4.647-.684-7.313 0-2.9.744-4.595 1.728-6.843 3.97-2.228 2.224-3.204 3.916-3.955 6.86-.5 1.964-.731 5.297-.39 5.64.081.081 1.032-.132 2.112-.474 1.894-.6 1.967-.656 2.03-1.54zm4.446-.482c1.222-.156 1.252-.184 1.434-1.319.233-1.451 1.608-3.172 3.125-3.912 1.495-.73 3.85-.74 5.376-.023 1.489.698 2.895 2.467 3.131 3.935.182 1.135.212 1.163 1.434 1.319.686.088 1.585.239 1.999.336L75 23l-.156-1.61c-.32-3.285-2.368-6.065-5.549-7.527-1.672-.77-2.137-.863-4.289-.863-2.024 0-2.674.114-4.027.707-3.22 1.41-5.507 4.427-5.823 7.682L55 23l.751-.176a25.059 25.059 0 0 1 2-.336zm11.093-.392c-.51-2.943-3.469-4.856-5.884-3.804-1.013.441-2.188 1.757-2.629 2.944-.67 1.805-.766 1.764 4.153 1.764H69l-.157-.904zm-22.697-2.308c1.369-.34 2.327-1.183 2.696-2.372.846-2.722-1.838-5.015-5.006-4.276-3.714.867-3.805 5.679-.126 6.635 1.146.297 1.289.298 2.436.013zm-2.88-1.194c-1.126-.596-1.604-2.143-1.008-3.265 1.03-1.937 3.9-1.708 4.604.368.415 1.226-.13 2.467-1.317 2.993-.98.435-1.3.421-2.278-.096zM45.4 17.4c.33-.33.6-.735.6-.9 0-.39-1.11-1.5-1.5-1.5-.39 0-1.5 1.11-1.5 1.5 0 .165.27.57.6.9.33.33.735.6.9.6.165 0 .57-.27.9-.6zm40.746 2.388c1.369-.34 2.327-1.183 2.696-2.372.846-2.722-1.838-5.015-5.006-4.276-3.714.867-3.805 5.679-.126 6.635 1.146.297 1.289.298 2.436.013zm-2.88-1.194c-1.126-.596-1.604-2.143-1.008-3.265 1.03-1.937 3.9-1.708 4.604.368.415 1.226-.13 2.467-1.317 2.993-.98.435-1.3.421-2.278-.096zM85.4 17.4c.33-.33.6-.735.6-.9 0-.39-1.11-1.5-1.5-1.5-.39 0-1.5 1.11-1.5 1.5 0 .165.27.57.6.9.33.33.735.6.9.6.165 0 .57-.27.9-.6z" fill="#000" fill-rule="evenodd"/></svg>